<svg viewBox="0 0 927 258" fill="none" xmlns="http://www.w3.org/2000/svg">
<g filter="url(#filter0_di_0_1)">
<circle cx="448.273" cy="115" r="79" fill="#FFF55A"/>
</g>
<g filter="url(#filter1_d_0_1)">
<path d="M385.273 71.5C372.349 71.5 387.737 46.438 405.738 35.4379C423.738 24.4378 425.237 2.14084 452.237 9.43798C469.237 14.0325 519.532 49.0641 504.273 59C482.773 73 455.238 55.9379 434.738 55.9379C420.024 55.9379 392.273 71.5 385.273 71.5Z" fill="url(#paint0_linear_0_1)"/>
</g>
<g filter="url(#filter2_d_0_1)">
<path d="M28.7736 157.5C8.26959 165.474 0.374889 211 2.27356 223.5C8.27356 263 95.5337 232.81 119.274 223.5C195.773 193.5 287.393 195.087 349.774 201.5C403.273 207 540.773 235 612.773 239.5C684.773 244 748.773 227.5 786.273 227.5C833.273 227.5 884.273 264 915.273 246.5C930.273 242 928.773 184.5 900.273 166.5C874.273 146.5 745.273 192.5 667.273 171.5C629.673 161.377 528.274 150.5 507.274 168C486.274 185.5 381.274 163.5 375.774 146.5C371.274 130 319.774 146 296.774 157.5C273.774 169 64.7734 143.5 28.7736 157.5Z" fill="url(#paint1_linear_0_1)"/>
</g>
<defs>
<filter id="filter0_di_0_1" x="329.273" y="0" width="238" height="238" filterUnits="userSpaceOnUse" color-interpolation-filters="sRGB">
<feFlood flood-opacity="0" result="BackgroundImageFix"/>
<feColorMatrix in="SourceAlpha" type="matrix" values="0 0 0 0 0 0 0 0 0 0 0 0 0 0 0 0 0 0 127 0" result="hardAlpha"/>
<feOffset dy="4"/>
<feGaussianBlur stdDeviation="20"/>
<feComposite in2="hardAlpha" operator="out"/>
<feColorMatrix type="matrix" values="0 0 0 0 1 0 0 0 0 0.818824 0 0 0 0 0.352941 0 0 0 1 0"/>
<feBlend mode="normal" in2="BackgroundImageFix" result="effect1_dropShadow_0_1"/>
<feBlend mode="normal" in="SourceGraphic" in2="effect1_dropShadow_0_1" result="shape"/>
<feColorMatrix in="SourceAlpha" type="matrix" values="0 0 0 0 0 0 0 0 0 0 0 0 0 0 0 0 0 0 127 0" result="hardAlpha"/>
<feOffset/>
<feGaussianBlur stdDeviation="4"/>
<feComposite in2="hardAlpha" operator="arithmetic" k2="-1" k3="1"/>
<feColorMatrix type="matrix" values="0 0 0 0 0.956863 0 0 0 0 0.784314 0 0 0 0 0.172549 0 0 0 1 0"/>
<feBlend mode="normal" in2="shape" result="effect2_innerShadow_0_1"/>
</filter>
<filter id="filter1_d_0_1" x="378.482" y="8" width="130.636" height="69.5" filterUnits="userSpaceOnUse" color-interpolation-filters="sRGB">
<feFlood flood-opacity="0" result="BackgroundImageFix"/>
<feColorMatrix in="SourceAlpha" type="matrix" values="0 0 0 0 0 0 0 0 0 0 0 0 0 0 0 0 0 0 127 0" result="hardAlpha"/>
<feOffset dy="4"/>
<feGaussianBlur stdDeviation="1"/>
<feComposite in2="hardAlpha" operator="out"/>
<feColorMatrix type="matrix" values="0 0 0 0 0.0403125 0 0 0 0 0.0791917 0 0 0 0 0.179167 0 0 0 0.09 0"/>
<feBlend mode="normal" in2="BackgroundImageFix" result="effect1_dropShadow_0_1"/>
<feBlend mode="normal" in="SourceGraphic" in2="effect1_dropShadow_0_1" result="shape"/>
</filter>
<filter id="filter2_d_0_1" x="0" y="139.422" width="926.682" height="117.827" filterUnits="userSpaceOnUse" color-interpolation-filters="sRGB">
<feFlood flood-opacity="0" result="BackgroundImageFix"/>
<feColorMatrix in="SourceAlpha" type="matrix" values="0 0 0 0 0 0 0 0 0 0 0 0 0 0 0 0 0 0 127 0" result="hardAlpha"/>
<feOffset dy="4"/>
<feGaussianBlur stdDeviation="1"/>
<feComposite in2="hardAlpha" operator="out"/>
<feColorMatrix type="matrix" values="0 0 0 0 0.0403125 0 0 0 0 0.0791917 0 0 0 0 0.179167 0 0 0 0.09 0"/>
<feBlend mode="normal" in2="BackgroundImageFix" result="effect1_dropShadow_0_1"/>
<feBlend mode="normal" in="SourceGraphic" in2="effect1_dropShadow_0_1" result="shape"/>
</filter>
<linearGradient id="paint0_linear_0_1" x1="450.309" y1="19.5039" x2="430.036" y2="141.492" gradientUnits="userSpaceOnUse">
<stop stop-color="#D8DCFF"/>
<stop offset="1" stop-color="#849FEE"/>
</linearGradient>
<linearGradient id="paint1_linear_0_1" x1="462.141" y1="121.75" x2="447.824" y2="394.082" gradientUnits="userSpaceOnUse">
<stop stop-color="#D8DCFF"/>
<stop offset="1" stop-color="#849FEE"/>
</linearGradient>
</defs>
</svg>
