<svg width="1920" height="918" viewBox="0 0 1920 918" fill="none" xmlns="http://www.w3.org/2000/svg">
<rect x="1122.21" y="80.9565" width="110.533" height="219.418" fill="#4549B0"/>
<path d="M1113.87 89.5902C1109.62 89.5902 1107.31 84.6321 1110.03 81.3782L1173.64 5.49787C1175.64 3.11395 1179.31 3.11395 1181.3 5.49788L1244.91 81.3782C1247.64 84.6321 1245.33 89.5902 1241.08 89.5902H1113.87Z" fill="#C2CAFF"/>
<path d="M1116.75 89.5904L1177.47 16.5391L1238.2 89.5904H1116.75Z" fill="#444B89" fill-opacity="0.43"/>
<path d="M1122.21 89.5887L1177.47 23.6589L1232.74 89.5887V94.0218H1122.21V89.5887Z" fill="#4549B0"/>
<path d="M1162.47 254.505C1162.47 246.221 1169.19 239.505 1177.47 239.505C1185.76 239.505 1192.47 246.221 1192.47 254.505V289.505H1162.47V254.505Z" fill="#0C1648"/>
<ellipse cx="1187.16" cy="268.499" rx="2.27093" ry="2.25" fill="white"/>
<circle cx="1177.47" cy="77.5051" r="18" fill="#0C1648" stroke="#783582" stroke-width="4"/>
<path d="M1166.97 121.005C1166.97 115.206 1171.67 110.505 1177.47 110.505C1183.27 110.505 1187.97 115.206 1187.97 121.005V134.924H1166.97V121.005Z" fill="#0C1648"/>
<path d="M1163.47 135.924C1163.47 135.372 1163.92 134.924 1164.47 134.924H1190.47C1191.02 134.924 1191.47 135.372 1191.47 135.924V139.505C1191.47 140.058 1191.02 140.505 1190.47 140.505H1164.47C1163.92 140.505 1163.47 140.058 1163.47 139.505V135.924Z" fill="#783582"/>
<path d="M1166.97 164.005C1166.97 158.206 1171.67 153.505 1177.47 153.505C1183.27 153.505 1187.97 158.206 1187.97 164.005V177.924H1166.97V164.005Z" fill="#0C1648"/>
<path d="M1163.47 178.924C1163.47 178.372 1163.92 177.924 1164.47 177.924H1190.47C1191.02 177.924 1191.47 178.372 1191.47 178.924V182.505C1191.47 183.058 1191.02 183.505 1190.47 183.505H1164.47C1163.92 183.505 1163.47 183.058 1163.47 182.505V178.924Z" fill="#783582"/>
<path d="M1166.97 207.005C1166.97 201.206 1171.67 196.505 1177.47 196.505C1183.27 196.505 1187.97 201.206 1187.97 207.005V220.924H1166.97V207.005Z" fill="#0C1648"/>
<path d="M1163.47 221.924C1163.47 221.372 1163.92 220.924 1164.47 220.924H1190.47C1191.02 220.924 1191.47 221.372 1191.47 221.924V225.505C1191.47 226.058 1191.02 226.505 1190.47 226.505H1164.47C1163.92 226.505 1163.47 226.058 1163.47 225.505V221.924Z" fill="#783582"/>
<rect x="1005.4" y="201.172" width="134.471" height="201.887" fill="#A2B5FC"/>
<g filter="url(#filter0_f_128_13974)">
<circle cx="1031.5" cy="172.908" r="6.6702" fill="#CFD2FE"/>
<circle cx="1031.5" cy="155.311" r="9.05493" fill="#CFD2FE"/>
<circle cx="1031.5" cy="182.571" r="4.25697" fill="#CFD2FE"/>
<circle cx="1031.5" cy="171.644" r="4.25701" fill="#CFD2FE"/>
<circle cx="1031.5" cy="151.072" r="4.23825" fill="#CFD2FE"/>
</g>
<path d="M1022.56 148.219H1040.67V165.002L1022.56 180.176V148.219Z" fill="#9DADE5"/>
<rect x="1020" y="145" width="22.8761" height="8.47666" rx="1" fill="#C2CAFF"/>
<path d="M998.285 204.038C993.377 204.038 991.407 197.705 995.448 194.921L1069.8 143.682C1071.51 142.504 1073.77 142.504 1075.47 143.682L1149.83 194.921C1153.87 197.705 1151.9 204.038 1146.99 204.038H998.285Z" fill="#C2CAFF"/>
<path d="M998.763 204.038L1072.64 152.698L1146.51 204.038H998.763Z" fill="#444B89" fill-opacity="0.43"/>
<path d="M1005.4 204.037L1072.64 157.702L1139.87 204.037V207.152H1005.4V204.037Z" fill="#A2B5FC"/>
<path d="M1057.64 331.505C1057.64 323.221 1064.35 316.505 1072.64 316.505C1080.92 316.505 1087.64 323.221 1087.64 331.505V366.505H1057.64V331.505Z" fill="#0C1648"/>
<ellipse cx="1082.32" cy="345.498" rx="2.27093" ry="2.25" fill="white"/>
<circle cx="1072.64" cy="197.505" r="18" fill="#0C1648" stroke="#783582" stroke-width="4"/>
<path d="M1036.14 241.005C1036.14 235.206 1040.84 230.505 1046.64 230.505C1052.44 230.505 1057.14 235.206 1057.14 241.005V254.923H1036.14V241.005Z" fill="#0C1648"/>
<path d="M1032.64 255.924C1032.64 255.371 1033.09 254.924 1033.64 254.924H1059.64C1060.19 254.924 1060.64 255.371 1060.64 255.924V259.505C1060.64 260.057 1060.19 260.505 1059.64 260.505H1033.64C1033.09 260.505 1032.64 260.057 1032.64 259.505V255.924Z" fill="#783582"/>
<path d="M1088.14 241.005C1088.14 235.206 1092.84 230.505 1098.64 230.505C1104.44 230.505 1109.14 235.206 1109.14 241.005V254.923H1088.14V241.005Z" fill="#0C1648"/>
<path d="M1084.64 255.924C1084.64 255.371 1085.09 254.924 1085.64 254.924H1111.64C1112.19 254.924 1112.64 255.371 1112.64 255.924V259.505C1112.64 260.057 1112.19 260.505 1111.64 260.505H1085.64C1085.09 260.505 1084.64 260.057 1084.64 259.505V255.924Z" fill="#783582"/>
<path d="M1036.14 284.005C1036.14 278.206 1040.84 273.505 1046.64 273.505C1052.44 273.505 1057.14 278.206 1057.14 284.005V297.923H1036.14V284.005Z" fill="#0C1648"/>
<path d="M1032.64 298.924C1032.64 298.371 1033.09 297.924 1033.64 297.924H1059.64C1060.19 297.924 1060.64 298.371 1060.64 298.924V302.505C1060.64 303.057 1060.19 303.505 1059.64 303.505H1033.64C1033.09 303.505 1032.64 303.057 1032.64 302.505V298.924Z" fill="#783582"/>
<path d="M1088.14 284.005C1088.14 278.206 1092.84 273.505 1098.64 273.505C1104.44 273.505 1109.14 278.206 1109.14 284.005V297.923H1088.14V284.005Z" fill="#0C1648"/>
<path d="M1084.64 298.924C1084.64 298.371 1085.09 297.924 1085.64 297.924H1111.64C1112.19 297.924 1112.64 298.371 1112.64 298.924V302.505C1112.64 303.057 1112.19 303.505 1111.64 303.505H1085.64C1085.09 303.505 1084.64 303.057 1084.64 302.505V298.924Z" fill="#783582"/>
<rect x="518.997" y="250.244" width="157.917" height="167.869" fill="#4549B0"/>
<path d="M505.561 262.283C500.887 262.283 498.768 256.44 502.356 253.445L594.752 176.295C596.607 174.746 599.306 174.746 601.161 176.295L693.557 253.445C697.145 256.44 695.026 262.283 690.352 262.283H505.561Z" fill="#C2CAFF"/>
<path d="M511.201 262.283L597.957 189.231L684.712 262.283H511.201Z" fill="#444B89" fill-opacity="0.43"/>
<path d="M518.998 262.281L597.956 196.351L676.915 262.281V266.714H518.998V262.281Z" fill="#4549B0"/>
<path d="M582.956 339.225C582.956 330.941 589.672 324.225 597.956 324.225C606.24 324.225 612.956 330.941 612.956 339.225V374.225H582.956V339.225Z" fill="#0C1648"/>
<ellipse cx="607.642" cy="353.218" rx="2.27093" ry="2.25" fill="white"/>
<circle cx="597.956" cy="248.225" r="18" fill="#0C1648" stroke="#783582" stroke-width="4"/>
<path d="M561.456 291.725C561.456 285.926 566.157 281.225 571.956 281.225C577.755 281.225 582.456 285.926 582.456 291.725V305.643H561.456V291.725Z" fill="#0C1648"/>
<path d="M557.956 306.644C557.956 306.091 558.404 305.644 558.956 305.644H584.956C585.508 305.644 585.956 306.091 585.956 306.644V310.225C585.956 310.777 585.508 311.225 584.956 311.225H558.956C558.404 311.225 557.956 310.777 557.956 310.225V306.644Z" fill="#783582"/>
<path d="M613.456 291.725C613.456 285.926 618.157 281.225 623.956 281.225C629.755 281.225 634.456 285.926 634.456 291.725V305.643H613.456V291.725Z" fill="#0C1648"/>
<path d="M609.956 306.644C609.956 306.091 610.404 305.644 610.956 305.644H636.956C637.508 305.644 637.956 306.091 637.956 306.644V310.225C637.956 310.777 637.508 311.225 636.956 311.225H610.956C610.404 311.225 609.956 310.777 609.956 310.225V306.644Z" fill="#783582"/>
<rect x="793.005" y="155.561" width="139.052" height="113.147" fill="#4549B0"/>
<path d="M781.388 155.992C776.894 155.992 774.682 150.524 777.911 147.399L859.054 68.8785C860.993 67.0027 864.07 67.0027 866.008 68.8785L947.151 147.399C950.381 150.524 948.168 155.992 943.674 155.992H781.388Z" fill="#C2CAFF"/>
<path d="M786.14 155.992L862.531 81.4456L938.923 155.992H786.14Z" fill="#444B89" fill-opacity="0.43"/>
<path d="M793.005 155.99L862.531 88.7114L932.057 155.99V160.514H793.005V155.99Z" fill="#4549B0"/>
<path d="M847.531 225.113C847.531 216.829 854.247 210.113 862.531 210.113C870.815 210.113 877.531 216.829 877.531 225.113V260.113H847.531V225.113Z" fill="#0C1648"/>
<ellipse cx="872.217" cy="239.106" rx="2.27093" ry="2.25" fill="white"/>
<circle cx="862.531" cy="177.113" r="18" fill="#0C1648" stroke="#783582" stroke-width="4"/>
<path d="M605.031 397.514H743.031V507.514H605.031V397.514Z" fill="#D39D8C"/>
<path d="M593.293 398.992C588.812 398.992 586.594 393.551 589.797 390.417L670.035 311.934C671.978 310.033 675.084 310.033 677.027 311.934L757.265 390.417C760.469 393.551 758.25 398.992 753.769 398.992H593.293Z" fill="#C2CAFF"/>
<path d="M597.957 398.992L673.531 324.446L749.106 398.992H597.957Z" fill="#444B89" fill-opacity="0.43"/>
<path d="M604.748 398.99L673.531 331.711L742.314 398.99V403.514H604.748V398.99Z" fill="#D39D8C"/>
<path d="M659.031 428.113C659.031 419.829 665.747 413.113 674.031 413.113C682.315 413.113 689.031 419.829 689.031 428.113V463.113H659.031V428.113Z" fill="#0C1648"/>
<ellipse cx="683.717" cy="442.107" rx="2.27093" ry="2.25" fill="white"/>
<circle cx="674.031" cy="380.113" r="18" fill="#0C1648" stroke="#783582" stroke-width="4"/>
<g filter="url(#filter1_f_128_13974)">
<circle cx="463.502" cy="355.908" r="6.6702" fill="#CFD2FE"/>
<circle cx="463.502" cy="337.311" r="9.05493" fill="#CFD2FE"/>
<circle cx="463.502" cy="305.855" r="14.5022" fill="#CFD2FE"/>
<circle cx="463.502" cy="284.062" r="10.1804" fill="#CFD2FE"/>
<circle cx="463.502" cy="251.67" r="6.6702" fill="#CFD2FE"/>
</g>
<path d="M454.557 331.219H472.667V348.002L454.557 363.176V331.219Z" fill="#9DADE5"/>
<rect x="452" y="328" width="22.8761" height="8.47666" rx="1" fill="#C2CAFF"/>
<rect x="434.774" y="402.347" width="172.514" height="219.51" fill="#A2B5FC"/>
<path d="M419.693 399.039C414.923 399.039 412.862 392.996 416.638 390.081L517.976 311.872C519.776 310.483 522.286 310.483 524.086 311.872L625.424 390.081C629.2 392.996 627.139 399.039 622.369 399.039H419.693Z" fill="#C2CAFF"/>
<path d="M426.257 399.039L521.031 325.278L615.806 399.039H426.257Z" fill="#444B89" fill-opacity="0.43"/>
<path d="M434.774 399.038L521.031 332.467L607.288 399.038V403.514H434.774V399.038Z" fill="#A2B5FC"/>
<path d="M506.031 551.505C506.031 543.221 512.747 536.505 521.031 536.505C529.315 536.505 536.031 543.221 536.031 551.505V586.505H506.031V551.505Z" fill="#0C1648"/>
<ellipse cx="530.717" cy="565.499" rx="2.27093" ry="2.25" fill="white"/>
<circle cx="521.031" cy="374.505" r="18" fill="#0C1648" stroke="#783582" stroke-width="4"/>
<path d="M458.531 418.005C458.531 412.206 463.232 407.505 469.031 407.505C474.83 407.505 479.531 412.206 479.531 418.005V431.924H458.531V418.005Z" fill="#0C1648"/>
<path d="M455.031 432.924C455.031 432.372 455.479 431.924 456.031 431.924H482.031C482.583 431.924 483.031 432.372 483.031 432.924V436.505C483.031 437.058 482.583 437.505 482.031 437.505H456.031C455.479 437.505 455.031 437.058 455.031 436.505V432.924Z" fill="#783582"/>
<path d="M510.531 418.005C510.531 412.206 515.232 407.505 521.031 407.505C526.83 407.505 531.531 412.206 531.531 418.005V431.924H510.531V418.005Z" fill="#0C1648"/>
<path d="M507.031 432.924C507.031 432.372 507.479 431.924 508.031 431.924H534.031C534.583 431.924 535.031 432.372 535.031 432.924V436.505C535.031 437.058 534.583 437.505 534.031 437.505H508.031C507.479 437.505 507.031 437.058 507.031 436.505V432.924Z" fill="#783582"/>
<path d="M562.531 418.005C562.531 412.206 567.232 407.505 573.031 407.505C578.83 407.505 583.531 412.206 583.531 418.005V431.924H562.531V418.005Z" fill="#0C1648"/>
<path d="M559.031 432.924C559.031 432.372 559.479 431.924 560.031 431.924H586.031C586.583 431.924 587.031 432.372 587.031 432.924V436.505C587.031 437.058 586.583 437.505 586.031 437.505H560.031C559.479 437.505 559.031 437.058 559.031 436.505V432.924Z" fill="#783582"/>
<path d="M458.531 461.005C458.531 455.206 463.232 450.505 469.031 450.505C474.83 450.505 479.531 455.206 479.531 461.005V474.924H458.531V461.005Z" fill="#0C1648"/>
<path d="M455.031 475.924C455.031 475.372 455.479 474.924 456.031 474.924H482.031C482.583 474.924 483.031 475.372 483.031 475.924V479.505C483.031 480.058 482.583 480.505 482.031 480.505H456.031C455.479 480.505 455.031 480.058 455.031 479.505V475.924Z" fill="#783582"/>
<path d="M510.531 461.005C510.531 455.206 515.232 450.505 521.031 450.505C526.83 450.505 531.531 455.206 531.531 461.005V474.924H510.531V461.005Z" fill="#0C1648"/>
<path d="M507.031 475.924C507.031 475.372 507.479 474.924 508.031 474.924H534.031C534.583 474.924 535.031 475.372 535.031 475.924V479.505C535.031 480.058 534.583 480.505 534.031 480.505H508.031C507.479 480.505 507.031 480.058 507.031 479.505V475.924Z" fill="#783582"/>
<path d="M562.531 461.005C562.531 455.206 567.232 450.505 573.031 450.505C578.83 450.505 583.531 455.206 583.531 461.005V474.924H562.531V461.005Z" fill="#0C1648"/>
<path d="M559.031 475.924C559.031 475.372 559.479 474.924 560.031 474.924H586.031C586.583 474.924 587.031 475.372 587.031 475.924V479.505C587.031 480.058 586.583 480.505 586.031 480.505H560.031C559.479 480.505 559.031 480.058 559.031 479.505V475.924Z" fill="#783582"/>
<path d="M458.531 504.005C458.531 498.206 463.232 493.505 469.031 493.505C474.83 493.505 479.531 498.206 479.531 504.005V517.924H458.531V504.005Z" fill="#0C1648"/>
<path d="M455.031 518.924C455.031 518.372 455.479 517.924 456.031 517.924H482.031C482.583 517.924 483.031 518.372 483.031 518.924V522.505C483.031 523.058 482.583 523.505 482.031 523.505H456.031C455.479 523.505 455.031 523.058 455.031 522.505V518.924Z" fill="#783582"/>
<path d="M510.531 504.005C510.531 498.206 515.232 493.505 521.031 493.505C526.83 493.505 531.531 498.206 531.531 504.005V517.924H510.531V504.005Z" fill="#0C1648"/>
<path d="M507.031 518.924C507.031 518.372 507.479 517.924 508.031 517.924H534.031C534.583 517.924 535.031 518.372 535.031 518.924V522.505C535.031 523.058 534.583 523.505 534.031 523.505H508.031C507.479 523.505 507.031 523.058 507.031 522.505V518.924Z" fill="#783582"/>
<path d="M562.531 504.005C562.531 498.206 567.232 493.505 573.031 493.505C578.83 493.505 583.531 498.206 583.531 504.005V517.924H562.531V504.005Z" fill="#0C1648"/>
<path d="M559.031 518.924C559.031 518.372 559.479 517.924 560.031 517.924H586.031C586.583 517.924 587.031 518.372 587.031 518.924V522.505C587.031 523.058 586.583 523.505 586.031 523.505H560.031C559.479 523.505 559.031 523.058 559.031 522.505V518.924Z" fill="#783582"/>
<path d="M458.476 547.005C458.476 541.206 463.177 536.505 468.976 536.505C474.775 536.505 479.476 541.206 479.476 547.005V560.924H458.476V547.005Z" fill="#0C1648"/>
<path d="M454.976 561.924C454.976 561.372 455.424 560.924 455.976 560.924H481.976C482.528 560.924 482.976 561.372 482.976 561.924V565.505C482.976 566.058 482.528 566.505 481.976 566.505H455.976C455.424 566.505 454.976 566.058 454.976 565.505V561.924Z" fill="#783582"/>
<path d="M562.476 547.005C562.476 541.206 567.177 536.505 572.976 536.505C578.775 536.505 583.476 541.206 583.476 547.005V560.924H562.476V547.005Z" fill="#0C1648"/>
<path d="M558.976 561.924C558.976 561.372 559.424 560.924 559.976 560.924H585.976C586.528 560.924 586.976 561.372 586.976 561.924V565.505C586.976 566.058 586.528 566.505 585.976 566.505H559.976C559.424 566.505 558.976 566.058 558.976 565.505V561.924Z" fill="#783582"/>
<rect x="883.428" y="268.708" width="130.734" height="124.405" fill="#D39D8C"/>
<path d="M873.008 271.516C868.719 271.516 866.421 266.47 869.236 263.234L945.259 175.85C947.252 173.559 950.81 173.559 952.803 175.85L1028.83 263.234C1031.64 266.47 1029.34 271.516 1025.05 271.516H873.008Z" fill="#C2CAFF"/>
<path d="M877.95 271.516L949.031 189.123L1020.11 271.516H877.95Z" fill="#444B89" fill-opacity="0.43"/>
<path d="M884.338 271.514L949.031 197.153L1013.72 271.514V276.514H884.338V271.514Z" fill="#D39D8C"/>
<path d="M933.795 333.983C933.795 325.699 940.511 318.983 948.795 318.983C957.079 318.983 963.795 325.699 963.795 333.983V368.983H933.795V333.983Z" fill="#0C1648"/>
<ellipse cx="958.481" cy="347.977" rx="2.27093" ry="2.25" fill="white"/>
<circle cx="948.795" cy="242.983" r="18" fill="#0C1648" stroke="#783582" stroke-width="4"/>
<path d="M912.295 286.483C912.295 280.684 916.996 275.983 922.795 275.983C928.594 275.983 933.295 280.684 933.295 286.483V300.402H912.295V286.483Z" fill="#0C1648"/>
<path d="M908.795 301.402C908.795 300.85 909.243 300.402 909.795 300.402H935.795C936.347 300.402 936.795 300.85 936.795 301.402V304.983C936.795 305.536 936.347 305.983 935.795 305.983H909.795C909.243 305.983 908.795 305.536 908.795 304.983V301.402Z" fill="#783582"/>
<path d="M964.295 286.483C964.295 280.684 968.996 275.983 974.795 275.983C980.594 275.983 985.295 280.684 985.295 286.483V300.402H964.295V286.483Z" fill="#0C1648"/>
<path d="M960.795 301.402C960.795 300.85 961.243 300.402 961.795 300.402H987.795C988.347 300.402 988.795 300.85 988.795 301.402V304.983C988.795 305.536 988.347 305.983 987.795 305.983H961.795C961.243 305.983 960.795 305.536 960.795 304.983V301.402Z" fill="#783582"/>
<rect x="739.236" y="311.12" width="163.591" height="177.646" fill="#CF5F95"/>
<path d="M749.588 246.686H767.698V263.468L749.588 278.643V246.686Z" fill="#9DADE5"/>
<rect x="747.031" y="243.467" width="22.8761" height="8.47666" rx="1" fill="#C2CAFF"/>
<path d="M724.869 307.944C720.189 307.944 718.074 302.09 721.673 299.099L817.835 219.171C819.688 217.631 822.375 217.631 824.227 219.171L920.389 299.099C923.988 302.09 921.873 307.944 917.193 307.944H724.869Z" fill="#C2CAFF"/>
<path d="M731.159 307.944L821.031 232.614L910.904 307.944H731.159Z" fill="#444B89" fill-opacity="0.43"/>
<path d="M739.236 307.943L821.031 239.956L902.827 307.943V312.514H739.236V307.943Z" fill="#CF5F95"/>
<path d="M806.031 370.393C806.031 362.109 812.747 355.393 821.031 355.393C829.315 355.393 836.031 362.109 836.031 370.393V405.393H806.031V370.393Z" fill="#0C1648"/>
<ellipse cx="830.717" cy="384.387" rx="2.27093" ry="2.25" fill="white"/>
<circle cx="821.031" cy="279.393" r="18" fill="#0C1648" stroke="#783582" stroke-width="4"/>
<path d="M758.531 322.893C758.531 317.094 763.232 312.393 769.031 312.393C774.83 312.393 779.531 317.094 779.531 322.893V336.812H758.531V322.893Z" fill="#0C1648"/>
<path d="M755.031 337.812C755.031 337.26 755.479 336.812 756.031 336.812H782.031C782.583 336.812 783.031 337.26 783.031 337.812V341.393C783.031 341.946 782.583 342.393 782.031 342.393H756.031C755.479 342.393 755.031 341.946 755.031 341.393V337.812Z" fill="#783582"/>
<path d="M810.531 322.893C810.531 317.094 815.232 312.393 821.031 312.393C826.83 312.393 831.531 317.094 831.531 322.893V336.812H810.531V322.893Z" fill="#0C1648"/>
<path d="M807.031 337.812C807.031 337.26 807.479 336.812 808.031 336.812H834.031C834.583 336.812 835.031 337.26 835.031 337.812V341.393C835.031 341.946 834.583 342.393 834.031 342.393H808.031C807.479 342.393 807.031 341.946 807.031 341.393V337.812Z" fill="#783582"/>
<path d="M862.531 322.893C862.531 317.094 867.232 312.393 873.031 312.393C878.83 312.393 883.531 317.094 883.531 322.893V336.812H862.531V322.893Z" fill="#0C1648"/>
<path d="M859.031 337.812C859.031 337.26 859.479 336.812 860.031 336.812H886.031C886.583 336.812 887.031 337.26 887.031 337.812V341.393C887.031 341.946 886.583 342.393 886.031 342.393H860.031C859.479 342.393 859.031 341.946 859.031 341.393V337.812Z" fill="#783582"/>
<path d="M758.476 365.893C758.476 360.094 763.177 355.393 768.976 355.393C774.775 355.393 779.476 360.094 779.476 365.893V379.812H758.476V365.893Z" fill="#0C1648"/>
<path d="M754.976 380.812C754.976 380.26 755.424 379.812 755.976 379.812H781.976C782.528 379.812 782.976 380.26 782.976 380.812V384.393C782.976 384.946 782.528 385.393 781.976 385.393H755.976C755.424 385.393 754.976 384.946 754.976 384.393V380.812Z" fill="#783582"/>
<path d="M862.476 365.893C862.476 360.094 867.177 355.393 872.976 355.393C878.775 355.393 883.476 360.094 883.476 365.893V379.812H862.476V365.893Z" fill="#0C1648"/>
<path d="M858.976 380.812C858.976 380.26 859.424 379.812 859.976 379.812H885.976C886.528 379.812 886.976 380.26 886.976 380.812V384.393C886.976 384.946 886.528 385.393 885.976 385.393H859.976C859.424 385.393 858.976 384.946 858.976 384.393V380.812Z" fill="#783582"/>
<rect x="1228.28" y="244.468" width="163.591" height="177.646" fill="#CF5F95"/>
<path d="M1374.35 172.686H1356.24V189.468L1374.35 204.643V172.686Z" fill="#9DADE5"/>
<rect width="22.8761" height="8.47666" rx="1" transform="matrix(-1 0 0 1 1376.91 169.467)" fill="#C2CAFF"/>
<path d="M1213.92 241.291C1209.24 241.291 1207.12 235.438 1210.72 232.446L1306.88 152.518C1308.73 150.978 1311.42 150.978 1313.27 152.518L1409.44 232.446C1413.04 235.438 1410.92 241.291 1406.24 241.291H1213.92Z" fill="#C2CAFF"/>
<path d="M1220.21 241.291L1310.08 165.961L1399.95 241.291H1220.21Z" fill="#444B89" fill-opacity="0.43"/>
<path d="M1228.28 241.29L1310.08 173.303L1391.87 241.29V245.861H1228.28V241.29Z" fill="#CF5F95"/>
<path d="M1295.08 303.74C1295.08 295.456 1301.79 288.74 1310.08 288.74C1318.36 288.74 1325.08 295.456 1325.08 303.74V338.74H1295.08V303.74Z" fill="#0C1648"/>
<ellipse cx="1319.76" cy="317.734" rx="2.27093" ry="2.25" fill="white"/>
<circle cx="1310.08" cy="212.74" r="18" fill="#0C1648" stroke="#783582" stroke-width="4"/>
<path d="M1247.58 256.24C1247.58 250.441 1252.28 245.74 1258.08 245.74C1263.88 245.74 1268.58 250.441 1268.58 256.24V270.159H1247.58V256.24Z" fill="#0C1648"/>
<path d="M1244.08 271.159C1244.08 270.607 1244.53 270.159 1245.08 270.159H1271.08C1271.63 270.159 1272.08 270.607 1272.08 271.159V274.741C1272.08 275.293 1271.63 275.741 1271.08 275.741H1245.08C1244.53 275.741 1244.08 275.293 1244.08 274.741V271.159Z" fill="#783582"/>
<path d="M1299.58 256.24C1299.58 250.441 1304.28 245.74 1310.08 245.74C1315.88 245.74 1320.58 250.441 1320.58 256.24V270.159H1299.58V256.24Z" fill="#0C1648"/>
<path d="M1296.08 271.159C1296.08 270.607 1296.53 270.159 1297.08 270.159H1323.08C1323.63 270.159 1324.08 270.607 1324.08 271.159V274.741C1324.08 275.293 1323.63 275.741 1323.08 275.741H1297.08C1296.53 275.741 1296.08 275.293 1296.08 274.741V271.159Z" fill="#783582"/>
<path d="M1351.58 256.24C1351.58 250.441 1356.28 245.74 1362.08 245.74C1367.88 245.74 1372.58 250.441 1372.58 256.24V270.159H1351.58V256.24Z" fill="#0C1648"/>
<path d="M1348.08 271.159C1348.08 270.607 1348.53 270.159 1349.08 270.159H1375.08C1375.63 270.159 1376.08 270.607 1376.08 271.159V274.741C1376.08 275.293 1375.63 275.741 1375.08 275.741H1349.08C1348.53 275.741 1348.08 275.293 1348.08 274.741V271.159Z" fill="#783582"/>
<path d="M1247.52 299.24C1247.52 293.441 1252.22 288.74 1258.02 288.74C1263.82 288.74 1268.52 293.441 1268.52 299.24V313.159H1247.52V299.24Z" fill="#0C1648"/>
<path d="M1244.02 314.159C1244.02 313.607 1244.47 313.159 1245.02 313.159H1271.02C1271.58 313.159 1272.02 313.607 1272.02 314.159V317.741C1272.02 318.293 1271.58 318.741 1271.02 318.741H1245.02C1244.47 318.741 1244.02 318.293 1244.02 317.741V314.159Z" fill="#783582"/>
<path d="M1351.52 299.24C1351.52 293.441 1356.22 288.74 1362.02 288.74C1367.82 288.74 1372.52 293.441 1372.52 299.24V313.159H1351.52V299.24Z" fill="#0C1648"/>
<path d="M1348.02 314.159C1348.02 313.607 1348.47 313.159 1349.02 313.159H1375.02C1375.57 313.159 1376.02 313.607 1376.02 314.159V317.741C1376.02 318.293 1375.57 318.741 1375.02 318.741H1349.02C1348.47 318.741 1348.02 318.293 1348.02 317.741V314.159Z" fill="#783582"/>
<rect x="542.81" y="486.36" width="177.441" height="190.861" fill="#CF5F95"/>
<path d="M528.17 504.42C523.256 504.42 521.29 498.074 525.343 495.296L628.704 424.452C630.408 423.284 632.654 423.284 634.358 424.452L737.719 495.296C741.772 498.074 739.806 504.42 734.892 504.42H528.17Z" fill="#C2CAFF"/>
<path d="M533.897 504.42L631.531 436.937L729.165 504.42H533.897Z" fill="#444B89" fill-opacity="0.43"/>
<path d="M542.671 504.419L631.531 443.514L720.391 504.419V508.514H542.671V504.419Z" fill="#CF5F95"/>
<path d="M616.531 592.505C616.531 584.221 623.247 577.505 631.531 577.505C639.815 577.505 646.531 584.221 646.531 592.505V627.505H616.531V592.505Z" fill="#0C1648"/>
<ellipse cx="641.217" cy="606.499" rx="2.27093" ry="2.25" fill="white"/>
<circle cx="631.531" cy="501.505" r="18" fill="#0C1648" stroke="#783582" stroke-width="4"/>
<path d="M569.031 545.005C569.031 539.206 573.732 534.505 579.531 534.505C585.33 534.505 590.031 539.206 590.031 545.005V558.924H569.031V545.005Z" fill="#0C1648"/>
<path d="M565.531 559.924C565.531 559.372 565.979 558.924 566.531 558.924H592.531C593.083 558.924 593.531 559.372 593.531 559.924V563.505C593.531 564.058 593.083 564.505 592.531 564.505H566.531C565.979 564.505 565.531 564.058 565.531 563.505V559.924Z" fill="#783582"/>
<path d="M621.031 545.005C621.031 539.206 625.732 534.505 631.531 534.505C637.33 534.505 642.031 539.206 642.031 545.005V558.924H621.031V545.005Z" fill="#0C1648"/>
<path d="M617.531 559.924C617.531 559.372 617.979 558.924 618.531 558.924H644.531C645.083 558.924 645.531 559.372 645.531 559.924V563.505C645.531 564.058 645.083 564.505 644.531 564.505H618.531C617.979 564.505 617.531 564.058 617.531 563.505V559.924Z" fill="#783582"/>
<path d="M673.031 545.005C673.031 539.206 677.732 534.505 683.531 534.505C689.33 534.505 694.031 539.206 694.031 545.005V558.924H673.031V545.005Z" fill="#0C1648"/>
<path d="M669.531 559.924C669.531 559.372 669.979 558.924 670.531 558.924H696.531C697.083 558.924 697.531 559.372 697.531 559.924V563.505C697.531 564.058 697.083 564.505 696.531 564.505H670.531C669.979 564.505 669.531 564.058 669.531 563.505V559.924Z" fill="#783582"/>
<path d="M568.976 588.005C568.976 582.206 573.677 577.505 579.476 577.505C585.275 577.505 589.976 582.206 589.976 588.005V601.924H568.976V588.005Z" fill="#0C1648"/>
<path d="M565.476 602.924C565.476 602.372 565.924 601.924 566.476 601.924H592.476C593.028 601.924 593.476 602.372 593.476 602.924V606.505C593.476 607.058 593.028 607.505 592.476 607.505H566.476C565.924 607.505 565.476 607.058 565.476 606.505V602.924Z" fill="#783582"/>
<path d="M672.976 588.005C672.976 582.206 677.677 577.505 683.476 577.505C689.275 577.505 693.976 582.206 693.976 588.005V601.924H672.976V588.005Z" fill="#0C1648"/>
<path d="M669.476 602.924C669.476 602.372 669.924 601.924 670.476 601.924H696.476C697.028 601.924 697.476 602.372 697.476 602.924V606.505C697.476 607.058 697.028 607.505 696.476 607.505H670.476C669.924 607.505 669.476 607.058 669.476 606.505V602.924Z" fill="#783582"/>
<path d="M1385.06 254.924H1478.01V423.081H1385.06V254.924Z" fill="#4549B0"/>
<path d="M1378.56 257.992C1374.53 257.992 1372.16 253.467 1374.45 250.15L1427.42 173.47C1429.4 170.592 1433.66 170.592 1435.64 173.47L1488.61 250.15C1490.91 253.467 1488.53 257.992 1484.5 257.992H1378.56Z" fill="#C2CAFF"/>
<path d="M1380.47 257.992L1431.53 183.446L1482.59 257.992H1380.47Z" fill="#444B89" fill-opacity="0.43"/>
<path d="M1385.06 257.99L1431.53 190.711L1478.01 257.99V262.514H1385.06V257.99Z" fill="#4549B0"/>
<path d="M1416.33 343.527C1416.33 335.243 1423.05 328.527 1431.33 328.527C1439.62 328.527 1446.33 335.243 1446.33 343.527V378.527H1416.33V343.527Z" fill="#0C1648"/>
<ellipse cx="1441.02" cy="357.521" rx="2.27093" ry="2.25" fill="white"/>
<circle cx="1431.33" cy="252.527" r="18" fill="#0C1648" stroke="#783582" stroke-width="4"/>
<path d="M1420.83 296.027C1420.83 290.228 1425.53 285.527 1431.33 285.527C1437.13 285.527 1441.83 290.228 1441.83 296.027V309.946H1420.83V296.027Z" fill="#0C1648"/>
<path d="M1417.33 310.946C1417.33 310.394 1417.78 309.946 1418.33 309.946H1444.33C1444.88 309.946 1445.33 310.394 1445.33 310.946V314.527C1445.33 315.08 1444.88 315.527 1444.33 315.527H1418.33C1417.78 315.527 1417.33 315.08 1417.33 314.527V310.946Z" fill="#783582"/>
<path fill-rule="evenodd" clip-rule="evenodd" d="M208.278 374.917C209.045 374.986 209.599 374.2 209.276 373.501L193.718 339.827C193.354 339.039 192.228 339.056 191.889 339.855L177.399 373.993C177.098 374.701 177.677 375.47 178.441 375.377L181.387 375.018C182.189 374.921 182.77 375.764 182.393 376.478L173.949 392.479C173.577 393.185 174.141 394.021 174.935 393.941L178.906 393.538C179.704 393.457 180.268 394.302 179.887 395.009L168.916 415.33C168.538 416.029 169.088 416.868 169.879 416.802L187.343 415.344C187.92 415.296 188.417 415.747 188.426 416.325L188.789 439.38C188.798 439.932 189.252 440.373 189.805 440.365L198.965 440.223C199.518 440.215 199.958 439.76 199.949 439.208L199.587 416.153C199.577 415.574 200.06 415.109 200.638 415.139L218.139 416.058C218.933 416.099 219.455 415.244 219.056 414.557L207.451 394.583C207.047 393.889 207.585 393.027 208.385 393.084L212.367 393.363C213.163 393.419 213.701 392.566 213.306 391.872L204.362 376.139C203.963 375.437 204.518 374.576 205.322 374.649L208.278 374.917Z" fill="#CCCDFF"/>
<path d="M208.706 396.736L219.984 416.154L210.41 415.653L203.353 396.416L208.706 396.736Z" fill="#E9E6FF"/>
<path d="M205.789 378.438L214.228 393.494L206.502 392.951L201.303 378.038L205.789 378.438Z" fill="#E9E6FF"/>
<path d="M192.771 337.777L210.002 375.072L204.38 374.563L192.771 337.777Z" fill="#E9E6FF"/>
<path fill-rule="evenodd" clip-rule="evenodd" d="M164.984 345.592C165.734 345.763 166.39 345.059 166.165 344.324L152.191 298.601C151.937 297.772 150.82 297.638 150.375 298.384L125.87 339.497C125.476 340.159 125.944 340.998 126.714 341.008L131.412 341.072C132.219 341.082 132.68 341.996 132.209 342.653L118.333 362.027C117.868 362.677 118.313 363.581 119.111 363.608L125.125 363.81C125.927 363.837 126.371 364.75 125.897 365.398L108.119 389.731C107.65 390.373 108.08 391.278 108.874 391.319L131.716 392.492C132.294 392.522 132.726 393.035 132.656 393.61L129.088 423.026C129.022 423.574 129.413 424.072 129.961 424.137L141.956 425.574C142.504 425.64 143.002 425.248 143.069 424.7L146.636 395.284C146.706 394.709 147.248 394.313 147.817 394.421L170.285 398.674C171.066 398.821 171.7 398.044 171.398 397.31L159.946 369.476C159.641 368.735 160.291 367.953 161.076 368.116L166.967 369.339C167.748 369.502 168.397 368.728 168.1 367.988L159.253 345.891C158.953 345.142 159.619 344.364 160.406 344.544L164.984 345.592Z" fill="#CCCDFF"/>
<path d="M161.334 372.836L172.1 399.017L160.218 396.769L154.698 371.53L161.334 372.836Z" fill="#E9E6FF"/>
<path d="M160.828 349.471L168.793 369.719L159.229 367.732L155.289 348.212L160.828 349.471Z" fill="#E9E6FF"/>
<path d="M151.531 296.444L166.671 345.977L159.731 344.389L151.531 296.444Z" fill="#E9E6FF"/>
<g filter="url(#filter2_i_128_13974)">
<path d="M173.983 383.076L17.2565 396.087V801.758H706.517L691.22 638.037L622.404 622.221L574.766 590.181L497.619 583.858L426.09 523.873L329.944 490.68L173.983 383.076Z" fill="url(#paint0_linear_128_13974)"/>
</g>
<rect x="1236.55" y="386.637" width="183.06" height="143.232" fill="#A2B5FC"/>
<g filter="url(#filter3_f_128_13974)">
<circle cx="0.05" cy="0.05" r="0.05" transform="matrix(-1 0 0 1 1387.83 192.155)" fill="#CFD2FE"/>
<circle cx="0.05" cy="0.05" r="0.05" transform="matrix(-1 0 0 1 1384.42 200.45)" fill="#CFD2FE"/>
</g>
<path d="M1390.32 332.219H1372.21V349.002L1390.32 364.176V332.219Z" fill="#9DADE5"/>
<rect width="22.8761" height="8.47666" rx="1" transform="matrix(-1 0 0 1 1392.88 329)" fill="#C2CAFF"/>
<path d="M1221.05 399.933C1216.15 399.933 1214.18 393.601 1218.22 390.816L1325.24 317.062C1326.95 315.885 1329.21 315.885 1330.91 317.062L1437.94 390.816C1441.98 393.601 1440.01 399.933 1435.1 399.933H1221.05Z" fill="#C2CAFF"/>
<path d="M1227.51 399.933L1328.08 330.043L1428.65 399.933H1227.51Z" fill="#444B89" fill-opacity="0.43"/>
<path d="M1236.55 399.932L1328.08 336.855L1419.61 399.932V404.173H1236.55V399.932Z" fill="#A2B5FC"/>
<path d="M1313.08 423.393C1313.08 415.109 1319.79 408.393 1328.08 408.393C1336.36 408.393 1343.08 415.109 1343.08 423.393V458.393H1313.08V423.393Z" fill="#0C1648"/>
<ellipse cx="1337.76" cy="437.387" rx="2.27093" ry="2.25" fill="white"/>
<circle cx="1328.08" cy="375.393" r="18" fill="#0C1648" stroke="#783582" stroke-width="4"/>
<path d="M1265.52 418.893C1265.52 413.094 1270.22 408.393 1276.02 408.393C1281.82 408.393 1286.52 413.094 1286.52 418.893V432.812H1265.52V418.893Z" fill="#0C1648"/>
<path d="M1262.02 433.812C1262.02 433.26 1262.47 432.812 1263.02 432.812H1289.02C1289.57 432.812 1290.02 433.26 1290.02 433.812V437.393C1290.02 437.946 1289.57 438.393 1289.02 438.393H1263.02C1262.47 438.393 1262.02 437.946 1262.02 437.393V433.812Z" fill="#783582"/>
<path d="M1369.52 418.893C1369.52 413.094 1374.22 408.393 1380.02 408.393C1385.82 408.393 1390.52 413.094 1390.52 418.893V432.812H1369.52V418.893Z" fill="#0C1648"/>
<path d="M1366.02 433.812C1366.02 433.26 1366.47 432.812 1367.02 432.812H1393.02C1393.57 432.812 1394.02 433.26 1394.02 433.812V437.393C1394.02 437.946 1393.57 438.393 1393.02 438.393H1367.02C1366.47 438.393 1366.02 437.946 1366.02 437.393V433.812Z" fill="#783582"/>
<rect x="1411.89" y="396.215" width="203.612" height="242.428" fill="#D39D8C"/>
<path d="M1394.49 408.31C1389.46 408.31 1387.58 401.728 1391.84 399.068L1510.36 325.135C1511.98 324.124 1514.03 324.124 1515.65 325.135L1634.17 399.068C1638.43 401.728 1636.55 408.31 1631.52 408.31H1394.49Z" fill="#C2CAFF"/>
<path d="M1401.9 408.31L1513 338.42L1624.1 408.31H1401.9Z" fill="#444B89" fill-opacity="0.43"/>
<path d="M1411.89 408.308L1513 345.232L1614.12 408.308V412.55H1411.89V408.308Z" fill="#D39D8C"/>
<path d="M1498.7 525.505C1498.7 517.221 1505.41 510.505 1513.7 510.505C1521.98 510.505 1528.7 517.221 1528.7 525.505V560.505H1498.7V525.505Z" fill="#0C1648"/>
<ellipse cx="1523.38" cy="539.498" rx="2.27093" ry="2.25" fill="white"/>
<circle cx="1513.7" cy="391.505" r="18" fill="#0C1648" stroke="#783582" stroke-width="4"/>
<path d="M1451.2 435.005C1451.2 429.206 1455.9 424.505 1461.7 424.505C1467.49 424.505 1472.2 429.206 1472.2 435.005V448.923H1451.2V435.005Z" fill="#0C1648"/>
<path d="M1447.7 449.924C1447.7 449.371 1448.14 448.924 1448.7 448.924H1474.7C1475.25 448.924 1475.7 449.371 1475.7 449.924V453.505C1475.7 454.057 1475.25 454.505 1474.7 454.505H1448.7C1448.14 454.505 1447.7 454.057 1447.7 453.505V449.924Z" fill="#783582"/>
<path d="M1503.2 435.005C1503.2 429.206 1507.9 424.505 1513.7 424.505C1519.49 424.505 1524.2 429.206 1524.2 435.005V448.923H1503.2V435.005Z" fill="#0C1648"/>
<path d="M1499.7 449.924C1499.7 449.371 1500.14 448.924 1500.7 448.924H1526.7C1527.25 448.924 1527.7 449.371 1527.7 449.924V453.505C1527.7 454.057 1527.25 454.505 1526.7 454.505H1500.7C1500.14 454.505 1499.7 454.057 1499.7 453.505V449.924Z" fill="#783582"/>
<path d="M1555.2 435.005C1555.2 429.206 1559.9 424.505 1565.7 424.505C1571.49 424.505 1576.2 429.206 1576.2 435.005V448.923H1555.2V435.005Z" fill="#0C1648"/>
<path d="M1551.7 449.924C1551.7 449.371 1552.14 448.924 1552.7 448.924H1578.7C1579.25 448.924 1579.7 449.371 1579.7 449.924V453.505C1579.7 454.057 1579.25 454.505 1578.7 454.505H1552.7C1552.14 454.505 1551.7 454.057 1551.7 453.505V449.924Z" fill="#783582"/>
<path d="M1451.2 478.005C1451.2 472.206 1455.9 467.505 1461.7 467.505C1467.49 467.505 1472.2 472.206 1472.2 478.005V491.923H1451.2V478.005Z" fill="#0C1648"/>
<path d="M1447.7 492.924C1447.7 492.371 1448.14 491.924 1448.7 491.924H1474.7C1475.25 491.924 1475.7 492.371 1475.7 492.924V496.505C1475.7 497.057 1475.25 497.505 1474.7 497.505H1448.7C1448.14 497.505 1447.7 497.057 1447.7 496.505V492.924Z" fill="#783582"/>
<path d="M1503.2 478.005C1503.2 472.206 1507.9 467.505 1513.7 467.505C1519.49 467.505 1524.2 472.206 1524.2 478.005V491.923H1503.2V478.005Z" fill="#0C1648"/>
<path d="M1499.7 492.924C1499.7 492.371 1500.14 491.924 1500.7 491.924H1526.7C1527.25 491.924 1527.7 492.371 1527.7 492.924V496.505C1527.7 497.057 1527.25 497.505 1526.7 497.505H1500.7C1500.14 497.505 1499.7 497.057 1499.7 496.505V492.924Z" fill="#783582"/>
<path d="M1555.2 478.005C1555.2 472.206 1559.9 467.505 1565.7 467.505C1571.49 467.505 1576.2 472.206 1576.2 478.005V491.923H1555.2V478.005Z" fill="#0C1648"/>
<path d="M1551.7 492.924C1551.7 492.371 1552.14 491.924 1552.7 491.924H1578.7C1579.25 491.924 1579.7 492.371 1579.7 492.924V496.505C1579.7 497.057 1579.25 497.505 1578.7 497.505H1552.7C1552.14 497.505 1551.7 497.057 1551.7 496.505V492.924Z" fill="#783582"/>
<rect x="898.832" y="410.252" width="226.15" height="148.173" fill="#4549B0"/>
<path d="M886.206 406.833C881.113 406.833 879.281 400.109 883.669 397.524L1009.37 323.501C1010.93 322.579 1012.88 322.579 1014.44 323.501L1140.14 397.524C1144.53 400.109 1142.7 406.833 1137.61 406.833H886.206Z" fill="#C2CAFF"/>
<path d="M894.219 406.833L1011.91 336.943L1129.59 406.833H894.219Z" fill="#444B89" fill-opacity="0.43"/>
<path d="M904.796 406.831L1011.91 343.755L1119.02 406.831V411.073H904.796V406.831Z" fill="#4549B0"/>
<path d="M996.695 516.505C996.695 508.221 1003.41 501.505 1011.7 501.505C1019.98 501.505 1026.7 508.221 1026.7 516.505V551.505H996.695V516.505Z" fill="#0C1648"/>
<ellipse cx="1021.38" cy="530.499" rx="2.27093" ry="2.25" fill="white"/>
<circle cx="1011.7" cy="382.505" r="18" fill="#0C1648" stroke="#783582" stroke-width="4"/>
<path d="M949.195 426.005C949.195 420.206 953.896 415.505 959.695 415.505C965.494 415.505 970.195 420.206 970.195 426.005V439.924H949.195V426.005Z" fill="#0C1648"/>
<path d="M945.695 440.924C945.695 440.372 946.143 439.924 946.695 439.924H972.695C973.248 439.924 973.695 440.372 973.695 440.924V444.505C973.695 445.058 973.248 445.505 972.695 445.505H946.695C946.143 445.505 945.695 445.058 945.695 444.505V440.924Z" fill="#783582"/>
<path d="M1001.2 426.005C1001.2 420.206 1005.9 415.505 1011.7 415.505C1017.49 415.505 1022.2 420.206 1022.2 426.005V439.924H1001.2V426.005Z" fill="#0C1648"/>
<path d="M997.695 440.924C997.695 440.372 998.143 439.924 998.695 439.924H1024.7C1025.25 439.924 1025.7 440.372 1025.7 440.924V444.505C1025.7 445.058 1025.25 445.505 1024.7 445.505H998.695C998.143 445.505 997.695 445.058 997.695 444.505V440.924Z" fill="#783582"/>
<path d="M1053.2 426.005C1053.2 420.206 1057.9 415.505 1063.7 415.505C1069.49 415.505 1074.2 420.206 1074.2 426.005V439.924H1053.2V426.005Z" fill="#0C1648"/>
<path d="M1049.7 440.924C1049.7 440.372 1050.14 439.924 1050.7 439.924H1076.7C1077.25 439.924 1077.7 440.372 1077.7 440.924V444.505C1077.7 445.058 1077.25 445.505 1076.7 445.505H1050.7C1050.14 445.505 1049.7 445.058 1049.7 444.505V440.924Z" fill="#783582"/>
<path d="M949.195 469.005C949.195 463.206 953.896 458.505 959.695 458.505C965.494 458.505 970.195 463.206 970.195 469.005V482.924H949.195V469.005Z" fill="#0C1648"/>
<path d="M945.695 483.924C945.695 483.372 946.143 482.924 946.695 482.924H972.695C973.248 482.924 973.695 483.372 973.695 483.924V487.505C973.695 488.058 973.248 488.505 972.695 488.505H946.695C946.143 488.505 945.695 488.058 945.695 487.505V483.924Z" fill="#783582"/>
<path d="M1001.2 469.005C1001.2 463.206 1005.9 458.505 1011.7 458.505C1017.49 458.505 1022.2 463.206 1022.2 469.005V482.924H1001.2V469.005Z" fill="#0C1648"/>
<path d="M997.695 483.924C997.695 483.372 998.143 482.924 998.695 482.924H1024.7C1025.25 482.924 1025.7 483.372 1025.7 483.924V487.505C1025.7 488.058 1025.25 488.505 1024.7 488.505H998.695C998.143 488.505 997.695 488.058 997.695 487.505V483.924Z" fill="#783582"/>
<path d="M1053.2 469.005C1053.2 463.206 1057.9 458.505 1063.7 458.505C1069.49 458.505 1074.2 463.206 1074.2 469.005V482.924H1053.2V469.005Z" fill="#0C1648"/>
<path d="M1049.7 483.924C1049.7 483.372 1050.14 482.924 1050.7 482.924H1076.7C1077.25 482.924 1077.7 483.372 1077.7 483.924V487.505C1077.7 488.058 1077.25 488.505 1076.7 488.505H1050.7C1050.14 488.505 1049.7 488.058 1049.7 487.505V483.924Z" fill="#783582"/>
<rect x="1116.09" y="324.374" width="153.758" height="170.388" fill="#D39D8C"/>
<path d="M1103.56 330.828C1098.87 330.828 1096.76 324.94 1100.39 321.962L1189.8 248.604C1191.64 247.091 1194.3 247.091 1196.14 248.604L1285.56 321.962C1289.19 324.94 1287.08 330.828 1282.38 330.828H1103.56Z" fill="#C2CAFF"/>
<path d="M1108.5 330.828L1192.97 260.938L1277.44 330.828H1108.5Z" fill="#444B89" fill-opacity="0.43"/>
<path d="M1116.09 330.826L1192.97 267.75L1269.85 330.826V335.067H1116.09V330.826Z" fill="#D39D8C"/>
<path d="M1177.97 408.113C1177.97 399.829 1184.69 393.113 1192.97 393.113C1201.26 393.113 1207.97 399.829 1207.97 408.113V443.113H1177.97V408.113Z" fill="#0C1648"/>
<ellipse cx="1202.66" cy="422.107" rx="2.27093" ry="2.25" fill="white"/>
<circle cx="1192.97" cy="317.113" r="18" fill="#0C1648" stroke="#783582" stroke-width="4"/>
<path d="M1156.47 360.613C1156.47 354.814 1161.17 350.113 1166.97 350.113C1172.77 350.113 1177.47 354.814 1177.47 360.613V374.532H1156.47V360.613Z" fill="#0C1648"/>
<path d="M1152.97 375.532C1152.97 374.98 1153.42 374.532 1153.97 374.532H1179.97C1180.52 374.532 1180.97 374.98 1180.97 375.532V379.113C1180.97 379.666 1180.52 380.113 1179.97 380.113H1153.97C1153.42 380.113 1152.97 379.666 1152.97 379.113V375.532Z" fill="#783582"/>
<path d="M1208.47 360.613C1208.47 354.814 1213.17 350.113 1218.97 350.113C1224.77 350.113 1229.47 354.814 1229.47 360.613V374.532H1208.47V360.613Z" fill="#0C1648"/>
<path d="M1204.97 375.532C1204.97 374.98 1205.42 374.532 1205.97 374.532H1231.97C1232.52 374.532 1232.97 374.98 1232.97 375.532V379.113C1232.97 379.666 1232.52 380.113 1231.97 380.113H1205.97C1205.42 380.113 1204.97 379.666 1204.97 379.113V375.532Z" fill="#783582"/>
<path d="M1058.12 462.235H1187.21V572.667H1058.12V462.235Z" fill="#CF5F95"/>
<path d="M1047.73 463.992C1043.33 463.992 1041.07 458.717 1044.11 455.537L1118.92 377.294C1120.89 375.235 1124.18 375.235 1126.15 377.294L1200.95 455.537C1203.99 458.717 1201.73 463.992 1197.33 463.992H1047.73Z" fill="#C2CAFF"/>
<path d="M1051.86 463.992L1122.53 389.446L1193.2 463.992H1051.86Z" fill="#444B89" fill-opacity="0.43"/>
<path d="M1058.21 463.99L1122.53 396.711L1186.85 463.99V468.514H1058.21V463.99Z" fill="#CF5F95"/>
<path d="M1107.67 493.113C1107.67 484.829 1114.38 478.113 1122.67 478.113C1130.95 478.113 1137.67 484.829 1137.67 493.113V528.113H1107.67V493.113Z" fill="#0C1648"/>
<ellipse cx="1132.35" cy="507.107" rx="2.27093" ry="2.25" fill="white"/>
<circle cx="1122.67" cy="445.113" r="18" fill="#0C1648" stroke="#783582" stroke-width="4"/>
<rect x="797.225" y="454.374" width="162.94" height="136.432" fill="#A2B5FC"/>
<path d="M919.35 362.686H901.24V379.468L919.35 394.643V362.686Z" fill="#9DADE5"/>
<rect width="22.8761" height="8.47666" rx="1" transform="matrix(-1 0 0 1 921.907 359.467)" fill="#C2CAFF"/>
<path d="M782.573 450.092C777.94 450.092 775.798 444.336 779.305 441.308L875.427 358.301C877.304 356.68 880.086 356.68 881.963 358.301L978.085 441.308C981.591 444.336 979.45 450.092 974.817 450.092H782.573Z" fill="#C2CAFF"/>
<path d="M789.18 450.092L878.695 372.138L968.21 450.092H789.18Z" fill="#444B89" fill-opacity="0.43"/>
<path d="M797.225 450.091L878.695 379.736L960.165 450.091V454.821H797.225V450.091Z" fill="#A2B5FC"/>
<path d="M864.005 517.393C864.005 509.109 870.721 502.393 879.005 502.393C887.289 502.393 894.005 509.109 894.005 517.393V552.393H864.005V517.393Z" fill="#0C1648"/>
<ellipse cx="888.691" cy="531.387" rx="2.27093" ry="2.25" fill="white"/>
<circle cx="879.005" cy="426.393" r="18" fill="#0C1648" stroke="#783582" stroke-width="4"/>
<path d="M816.505 469.893C816.505 464.094 821.206 459.393 827.005 459.393C832.804 459.393 837.505 464.094 837.505 469.893V483.812H816.505V469.893Z" fill="#0C1648"/>
<path d="M813.005 484.812C813.005 484.26 813.453 483.812 814.005 483.812H840.005C840.557 483.812 841.005 484.26 841.005 484.812V488.393C841.005 488.946 840.557 489.393 840.005 489.393H814.005C813.453 489.393 813.005 488.946 813.005 488.393V484.812Z" fill="#783582"/>
<path d="M868.505 469.893C868.505 464.094 873.206 459.393 879.005 459.393C884.804 459.393 889.505 464.094 889.505 469.893V483.812H868.505V469.893Z" fill="#0C1648"/>
<path d="M865.005 484.812C865.005 484.26 865.453 483.812 866.005 483.812H892.005C892.557 483.812 893.005 484.26 893.005 484.812V488.393C893.005 488.946 892.557 489.393 892.005 489.393H866.005C865.453 489.393 865.005 488.946 865.005 488.393V484.812Z" fill="#783582"/>
<path d="M920.505 469.893C920.505 464.094 925.206 459.393 931.005 459.393C936.804 459.393 941.505 464.094 941.505 469.893V483.812H920.505V469.893Z" fill="#0C1648"/>
<path d="M917.005 484.812C917.005 484.26 917.453 483.812 918.005 483.812H944.005C944.557 483.812 945.005 484.26 945.005 484.812V488.393C945.005 488.946 944.557 489.393 944.005 489.393H918.005C917.453 489.393 917.005 488.946 917.005 488.393V484.812Z" fill="#783582"/>
<path d="M816.45 512.893C816.45 507.094 821.151 502.393 826.95 502.393C832.749 502.393 837.45 507.094 837.45 512.893V526.812H816.45V512.893Z" fill="#0C1648"/>
<path d="M812.95 527.812C812.95 527.26 813.398 526.812 813.95 526.812H839.95C840.502 526.812 840.95 527.26 840.95 527.812V531.393C840.95 531.946 840.502 532.393 839.95 532.393H813.95C813.398 532.393 812.95 531.946 812.95 531.393V527.812Z" fill="#783582"/>
<path d="M920.45 512.893C920.45 507.094 925.151 502.393 930.95 502.393C936.749 502.393 941.45 507.094 941.45 512.893V526.812H920.45V512.893Z" fill="#0C1648"/>
<path d="M916.95 527.812C916.95 527.26 917.398 526.812 917.95 526.812H943.95C944.502 526.812 944.95 527.26 944.95 527.812V531.393C944.95 531.946 944.502 532.393 943.95 532.393H917.95C917.398 532.393 916.95 531.946 916.95 531.393V527.812Z" fill="#783582"/>
<rect x="721.672" y="443.151" width="119.719" height="164.387" fill="#4549B0"/>
<path d="M711.804 450.754C707.548 450.754 705.238 445.776 707.985 442.526L777.712 360.032C779.71 357.669 783.352 357.669 785.35 360.032L855.077 442.526C857.824 445.776 855.514 450.754 851.258 450.754H711.804Z" fill="#C2CAFF"/>
<path d="M715.761 450.754L781.531 372.284L847.301 450.754H715.761Z" fill="#444B89" fill-opacity="0.43"/>
<path d="M721.672 450.752L781.531 379.932L841.391 450.752V455.514H721.672V450.752Z" fill="#4549B0"/>
<path d="M766.634 521.505C766.634 513.221 773.35 506.505 781.634 506.505C789.918 506.505 796.634 513.221 796.634 521.505V556.505H766.634V521.505Z" fill="#0C1648"/>
<ellipse cx="791.32" cy="535.499" rx="2.27093" ry="2.25" fill="white"/>
<circle cx="781.634" cy="430.505" r="18" fill="#0C1648" stroke="#783582" stroke-width="4"/>
<path d="M745.134 474.005C745.134 468.206 749.835 463.505 755.634 463.505C761.433 463.505 766.134 468.206 766.134 474.005V487.924H745.134V474.005Z" fill="#0C1648"/>
<path d="M741.634 488.924C741.634 488.372 742.082 487.924 742.634 487.924H768.634C769.186 487.924 769.634 488.372 769.634 488.924V492.505C769.634 493.058 769.186 493.505 768.634 493.505H742.634C742.082 493.505 741.634 493.058 741.634 492.505V488.924Z" fill="#783582"/>
<path d="M797.134 474.005C797.134 468.206 801.835 463.505 807.634 463.505C813.433 463.505 818.134 468.206 818.134 474.005V487.924H797.134V474.005Z" fill="#0C1648"/>
<path d="M793.634 488.924C793.634 488.372 794.082 487.924 794.634 487.924H820.634C821.186 487.924 821.634 488.372 821.634 488.924V492.505C821.634 493.058 821.186 493.505 820.634 493.505H794.634C794.082 493.505 793.634 493.058 793.634 492.505V488.924Z" fill="#783582"/>
<rect x="1016.66" y="563.386" width="161.851" height="162.398" fill="#A2B5FC"/>
<path d="M979.353 570.075C973.847 570.075 972.385 562.476 977.497 560.433L1095.3 513.339C1096.49 512.863 1097.82 512.863 1099.01 513.339L1216.81 560.433C1221.93 562.476 1220.46 570.075 1214.96 570.075H979.353Z" fill="#C2CAFF"/>
<path d="M979.685 570.075L1097.16 522.718L1214.63 570.075H979.685Z" fill="#444B89" fill-opacity="0.43"/>
<path d="M990.242 570.074L1097.15 527.334L1204.07 570.074V572.948H990.242V570.074Z" fill="#A2B5FC"/>
<path d="M1082.11 658.113C1082.11 649.828 1088.83 643.113 1097.11 643.113C1105.4 643.113 1112.11 649.828 1112.11 658.113V693.113H1082.11V658.113Z" fill="#0C1648"/>
<ellipse cx="1106.8" cy="672.106" rx="2.27093" ry="2.25" fill="white"/>
<circle cx="1097.11" cy="567.113" r="18" fill="#0C1648" stroke="#783582" stroke-width="4"/>
<path d="M1034.61 610.613C1034.61 604.814 1039.31 600.113 1045.11 600.113C1050.91 600.113 1055.61 604.814 1055.61 610.613V624.531H1034.61V610.613Z" fill="#0C1648"/>
<path d="M1031.11 625.531C1031.11 624.979 1031.56 624.531 1032.11 624.531H1058.11C1058.66 624.531 1059.11 624.979 1059.11 625.531V629.113C1059.11 629.665 1058.66 630.113 1058.11 630.113H1032.11C1031.56 630.113 1031.11 629.665 1031.11 629.113V625.531Z" fill="#783582"/>
<path d="M1086.61 610.613C1086.61 604.814 1091.31 600.113 1097.11 600.113C1102.91 600.113 1107.61 604.814 1107.61 610.613V624.531H1086.61V610.613Z" fill="#0C1648"/>
<path d="M1083.11 625.531C1083.11 624.979 1083.56 624.531 1084.11 624.531H1110.11C1110.66 624.531 1111.11 624.979 1111.11 625.531V629.113C1111.11 629.665 1110.66 630.113 1110.11 630.113H1084.11C1083.56 630.113 1083.11 629.665 1083.11 629.113V625.531Z" fill="#783582"/>
<path d="M1138.61 610.613C1138.61 604.814 1143.31 600.113 1149.11 600.113C1154.91 600.113 1159.61 604.814 1159.61 610.613V624.531H1138.61V610.613Z" fill="#0C1648"/>
<path d="M1135.11 625.531C1135.11 624.979 1135.56 624.531 1136.11 624.531H1162.11C1162.66 624.531 1163.11 624.979 1163.11 625.531V629.113C1163.11 629.665 1162.66 630.113 1162.11 630.113H1136.11C1135.56 630.113 1135.11 629.665 1135.11 629.113V625.531Z" fill="#783582"/>
<path d="M1034.56 653.613C1034.56 647.814 1039.26 643.113 1045.06 643.113C1050.86 643.113 1055.56 647.814 1055.56 653.613V667.531H1034.56V653.613Z" fill="#0C1648"/>
<path d="M1031.06 668.531C1031.06 667.979 1031.5 667.531 1032.06 667.531H1058.06C1058.61 667.531 1059.06 667.979 1059.06 668.531V672.113C1059.06 672.665 1058.61 673.113 1058.06 673.113H1032.06C1031.5 673.113 1031.06 672.665 1031.06 672.113V668.531Z" fill="#783582"/>
<path d="M1138.56 653.613C1138.56 647.814 1143.26 643.113 1149.06 643.113C1154.86 643.113 1159.56 647.814 1159.56 653.613V667.531H1138.56V653.613Z" fill="#0C1648"/>
<path d="M1135.06 668.531C1135.06 667.979 1135.5 667.531 1136.06 667.531H1162.06C1162.61 667.531 1163.06 667.979 1163.06 668.531V672.113C1163.06 672.665 1162.61 673.113 1162.06 673.113H1136.06C1135.5 673.113 1135.06 672.665 1135.06 672.113V668.531Z" fill="#783582"/>
<g filter="url(#filter4_f_128_13974)">
<path d="M1082.11 768.113C1082.11 776.397 1088.83 783.113 1097.11 783.113C1105.4 783.113 1112.11 776.397 1112.11 768.113V733.113H1082.11V768.113Z" fill="#0C1648"/>
<ellipse cx="2.27093" cy="2.25" rx="2.27093" ry="2.25" transform="matrix(1 0 0 -1 1104.53 756.369)" fill="white"/>
<circle cx="20" cy="20" r="18" transform="matrix(1 0 0 -1 1077.11 879.113)" fill="#0C1648" stroke="#E9E5FF" stroke-width="4"/>
<path d="M1034.61 815.613C1034.61 821.412 1039.31 826.113 1045.11 826.113C1050.91 826.113 1055.61 821.412 1055.61 815.613V801.694H1034.61V815.613Z" fill="#0C1648"/>
<path d="M1086.61 815.613C1086.61 821.412 1091.31 826.113 1097.11 826.113C1102.91 826.113 1107.61 821.412 1107.61 815.613V801.694H1086.61V815.613Z" fill="#0C1648"/>
<path d="M1138.61 815.613C1138.61 821.412 1143.31 826.113 1149.11 826.113C1154.91 826.113 1159.61 821.412 1159.61 815.613V801.694H1138.61V815.613Z" fill="#0C1648"/>
<path d="M1034.56 772.613C1034.56 778.412 1039.26 783.113 1045.06 783.113C1050.86 783.113 1055.56 778.412 1055.56 772.613V758.694H1034.56V772.613Z" fill="#0C1648"/>
<path d="M1138.56 772.613C1138.56 778.412 1143.26 783.113 1149.06 783.113C1154.86 783.113 1159.56 778.412 1159.56 772.613V758.694H1138.56V772.613Z" fill="#0C1648"/>
</g>
<rect x="1174.77" y="483.347" width="172.514" height="219.51" fill="#4549B0"/>
<path d="M1159.69 480.039C1154.92 480.039 1152.86 473.996 1156.64 471.081L1257.98 392.872C1259.78 391.483 1262.29 391.483 1264.09 392.872L1365.42 471.081C1369.2 473.996 1367.14 480.039 1362.37 480.039H1159.69Z" fill="#C2CAFF"/>
<path d="M1166.26 480.039L1261.03 406.278L1355.81 480.039H1166.26Z" fill="#444B89" fill-opacity="0.43"/>
<path d="M1174.77 480.038L1261.03 413.467L1347.29 480.038V484.514H1174.77V480.038Z" fill="#4549B0"/>
<path d="M1246.03 632.505C1246.03 624.221 1252.75 617.505 1261.03 617.505C1269.32 617.505 1276.03 624.221 1276.03 632.505V667.505H1246.03V632.505Z" fill="#0C1648"/>
<ellipse cx="1270.72" cy="646.499" rx="2.27093" ry="2.25" fill="white"/>
<circle cx="1261.03" cy="455.505" r="18" fill="#0C1648" stroke="#783582" stroke-width="4"/>
<path d="M1198.53 499.005C1198.53 493.206 1203.23 488.505 1209.03 488.505C1214.83 488.505 1219.53 493.206 1219.53 499.005V512.924H1198.53V499.005Z" fill="#0C1648"/>
<path d="M1195.03 513.924C1195.03 513.372 1195.48 512.924 1196.03 512.924H1222.03C1222.58 512.924 1223.03 513.372 1223.03 513.924V517.505C1223.03 518.058 1222.58 518.505 1222.03 518.505H1196.03C1195.48 518.505 1195.03 518.058 1195.03 517.505V513.924Z" fill="#783582"/>
<path d="M1250.53 499.005C1250.53 493.206 1255.23 488.505 1261.03 488.505C1266.83 488.505 1271.53 493.206 1271.53 499.005V512.924H1250.53V499.005Z" fill="#0C1648"/>
<path d="M1247.03 513.924C1247.03 513.372 1247.48 512.924 1248.03 512.924H1274.03C1274.58 512.924 1275.03 513.372 1275.03 513.924V517.505C1275.03 518.058 1274.58 518.505 1274.03 518.505H1248.03C1247.48 518.505 1247.03 518.058 1247.03 517.505V513.924Z" fill="#783582"/>
<path d="M1302.53 499.005C1302.53 493.206 1307.23 488.505 1313.03 488.505C1318.83 488.505 1323.53 493.206 1323.53 499.005V512.924H1302.53V499.005Z" fill="#0C1648"/>
<path d="M1299.03 513.924C1299.03 513.372 1299.48 512.924 1300.03 512.924H1326.03C1326.58 512.924 1327.03 513.372 1327.03 513.924V517.505C1327.03 518.058 1326.58 518.505 1326.03 518.505H1300.03C1299.48 518.505 1299.03 518.058 1299.03 517.505V513.924Z" fill="#783582"/>
<path d="M1198.53 542.005C1198.53 536.206 1203.23 531.505 1209.03 531.505C1214.83 531.505 1219.53 536.206 1219.53 542.005V555.924H1198.53V542.005Z" fill="#0C1648"/>
<path d="M1195.03 556.924C1195.03 556.372 1195.48 555.924 1196.03 555.924H1222.03C1222.58 555.924 1223.03 556.372 1223.03 556.924V560.505C1223.03 561.058 1222.58 561.505 1222.03 561.505H1196.03C1195.48 561.505 1195.03 561.058 1195.03 560.505V556.924Z" fill="#783582"/>
<path d="M1250.53 542.005C1250.53 536.206 1255.23 531.505 1261.03 531.505C1266.83 531.505 1271.53 536.206 1271.53 542.005V555.924H1250.53V542.005Z" fill="#0C1648"/>
<path d="M1247.03 556.924C1247.03 556.372 1247.48 555.924 1248.03 555.924H1274.03C1274.58 555.924 1275.03 556.372 1275.03 556.924V560.505C1275.03 561.058 1274.58 561.505 1274.03 561.505H1248.03C1247.48 561.505 1247.03 561.058 1247.03 560.505V556.924Z" fill="#783582"/>
<path d="M1302.53 542.005C1302.53 536.206 1307.23 531.505 1313.03 531.505C1318.83 531.505 1323.53 536.206 1323.53 542.005V555.924H1302.53V542.005Z" fill="#0C1648"/>
<path d="M1299.03 556.924C1299.03 556.372 1299.48 555.924 1300.03 555.924H1326.03C1326.58 555.924 1327.03 556.372 1327.03 556.924V560.505C1327.03 561.058 1326.58 561.505 1326.03 561.505H1300.03C1299.48 561.505 1299.03 561.058 1299.03 560.505V556.924Z" fill="#783582"/>
<path d="M1198.53 585.005C1198.53 579.206 1203.23 574.505 1209.03 574.505C1214.83 574.505 1219.53 579.206 1219.53 585.005V598.924H1198.53V585.005Z" fill="#0C1648"/>
<path d="M1195.03 599.924C1195.03 599.372 1195.48 598.924 1196.03 598.924H1222.03C1222.58 598.924 1223.03 599.372 1223.03 599.924V603.505C1223.03 604.058 1222.58 604.505 1222.03 604.505H1196.03C1195.48 604.505 1195.03 604.058 1195.03 603.505V599.924Z" fill="#783582"/>
<path d="M1250.53 585.005C1250.53 579.206 1255.23 574.505 1261.03 574.505C1266.83 574.505 1271.53 579.206 1271.53 585.005V598.924H1250.53V585.005Z" fill="#0C1648"/>
<path d="M1247.03 599.924C1247.03 599.372 1247.48 598.924 1248.03 598.924H1274.03C1274.58 598.924 1275.03 599.372 1275.03 599.924V603.505C1275.03 604.058 1274.58 604.505 1274.03 604.505H1248.03C1247.48 604.505 1247.03 604.058 1247.03 603.505V599.924Z" fill="#783582"/>
<path d="M1302.53 585.005C1302.53 579.206 1307.23 574.505 1313.03 574.505C1318.83 574.505 1323.53 579.206 1323.53 585.005V598.924H1302.53V585.005Z" fill="#0C1648"/>
<path d="M1299.03 599.924C1299.03 599.372 1299.48 598.924 1300.03 598.924H1326.03C1326.58 598.924 1327.03 599.372 1327.03 599.924V603.505C1327.03 604.058 1326.58 604.505 1326.03 604.505H1300.03C1299.48 604.505 1299.03 604.058 1299.03 603.505V599.924Z" fill="#783582"/>
<path d="M1198.48 628.005C1198.48 622.206 1203.18 617.505 1208.98 617.505C1214.77 617.505 1219.48 622.206 1219.48 628.005V641.924H1198.48V628.005Z" fill="#0C1648"/>
<path d="M1194.98 642.924C1194.98 642.372 1195.42 641.924 1195.98 641.924H1221.98C1222.53 641.924 1222.98 642.372 1222.98 642.924V646.505C1222.98 647.058 1222.53 647.505 1221.98 647.505H1195.98C1195.42 647.505 1194.98 647.058 1194.98 646.505V642.924Z" fill="#783582"/>
<path d="M1302.48 628.005C1302.48 622.206 1307.18 617.505 1312.98 617.505C1318.77 617.505 1323.48 622.206 1323.48 628.005V641.924H1302.48V628.005Z" fill="#0C1648"/>
<path d="M1298.98 642.924C1298.98 642.372 1299.42 641.924 1299.98 641.924H1325.98C1326.53 641.924 1326.98 642.372 1326.98 642.924V646.505C1326.98 647.058 1326.53 647.505 1325.98 647.505H1299.98C1299.42 647.505 1298.98 647.058 1298.98 646.505V642.924Z" fill="#783582"/>
<g filter="url(#filter5_f_128_13974)">
<path d="M1246.03 742.505C1246.03 750.789 1252.75 757.505 1261.03 757.505C1269.32 757.505 1276.03 750.789 1276.03 742.505V707.505H1246.03V742.505Z" fill="#0C1648"/>
<ellipse cx="2.27093" cy="2.25" rx="2.27093" ry="2.25" transform="matrix(1 0 0 -1 1268.45 730.762)" fill="white"/>
<circle cx="20" cy="20" r="18" transform="matrix(1 0 0 -1 1241.03 939.505)" fill="#0C1648" stroke="#E9E5FF" stroke-width="4"/>
<path d="M1198.53 876.005C1198.53 881.804 1203.23 886.505 1209.03 886.505C1214.83 886.505 1219.53 881.804 1219.53 876.005V862.087H1198.53V876.005Z" fill="#0C1648"/>
<path d="M1250.53 876.005C1250.53 881.804 1255.23 886.505 1261.03 886.505C1266.83 886.505 1271.53 881.804 1271.53 876.005V862.087H1250.53V876.005Z" fill="#0C1648"/>
<path d="M1302.53 876.005C1302.53 881.804 1307.23 886.505 1313.03 886.505C1318.83 886.505 1323.53 881.804 1323.53 876.005V862.087H1302.53V876.005Z" fill="#0C1648"/>
<path d="M1198.53 833.005C1198.53 838.804 1203.23 843.505 1209.03 843.505C1214.83 843.505 1219.53 838.804 1219.53 833.005V819.087H1198.53V833.005Z" fill="#0C1648"/>
<path d="M1250.53 833.005C1250.53 838.804 1255.23 843.505 1261.03 843.505C1266.83 843.505 1271.53 838.804 1271.53 833.005V819.087H1250.53V833.005Z" fill="#0C1648"/>
<path d="M1302.53 833.005C1302.53 838.804 1307.23 843.505 1313.03 843.505C1318.83 843.505 1323.53 838.804 1323.53 833.005V819.087H1302.53V833.005Z" fill="#0C1648"/>
<path d="M1198.53 790.005C1198.53 795.804 1203.23 800.505 1209.03 800.505C1214.83 800.505 1219.53 795.804 1219.53 790.005V776.087H1198.53V790.005Z" fill="#0C1648"/>
<path d="M1250.53 790.005C1250.53 795.804 1255.23 800.505 1261.03 800.505C1266.83 800.505 1271.53 795.804 1271.53 790.005V776.087H1250.53V790.005Z" fill="#0C1648"/>
<path d="M1302.53 790.005C1302.53 795.804 1307.23 800.505 1313.03 800.505C1318.83 800.505 1323.53 795.804 1323.53 790.005V776.087H1302.53V790.005Z" fill="#0C1648"/>
<path d="M1198.48 747.005C1198.48 752.804 1203.18 757.505 1208.98 757.505C1214.77 757.505 1219.48 752.804 1219.48 747.005V733.087H1198.48V747.005Z" fill="#0C1648"/>
<path d="M1302.48 747.005C1302.48 752.804 1307.18 757.505 1312.98 757.505C1318.77 757.505 1323.48 752.804 1323.48 747.005V733.087H1302.48V747.005Z" fill="#0C1648"/>
</g>
<path fill-rule="evenodd" clip-rule="evenodd" d="M1782.74 315.848C1781.98 315.962 1781.38 315.21 1781.66 314.494L1799.09 269.975C1799.4 269.167 1800.53 269.12 1800.92 269.897L1822.2 312.765C1822.55 313.454 1822.01 314.255 1821.25 314.207L1816.56 313.91C1815.75 313.86 1815.22 314.735 1815.64 315.426L1827.99 335.806C1828.41 336.489 1827.9 337.356 1827.1 337.322L1821.09 337.063C1820.28 337.029 1819.77 337.905 1820.19 338.588L1836.06 364.21C1836.48 364.885 1835.98 365.755 1835.18 365.735L1812.32 365.157C1811.74 365.143 1811.27 365.621 1811.3 366.199L1812.6 395.802C1812.63 396.354 1812.2 396.82 1811.65 396.844L1799.58 397.358C1799.03 397.382 1798.56 396.954 1798.53 396.402L1797.23 366.799C1797.2 366.221 1796.69 365.784 1796.12 365.848L1773.39 368.369C1772.6 368.457 1772.03 367.633 1772.38 366.924L1785.93 340.049C1786.29 339.332 1785.71 338.503 1784.91 338.606L1778.94 339.375C1778.15 339.477 1777.56 338.656 1777.92 337.941L1788.43 316.586C1788.78 315.862 1788.18 315.035 1787.38 315.154L1782.74 315.848Z" fill="#BBC2FF"/>
<path d="M1784.29 343.292L1771.55 368.573L1783.57 367.24L1791.01 342.498L1784.29 343.292Z" fill="#E2DBFF"/>
<path d="M1786.58 320.034L1777.09 339.613L1786.78 338.364L1792.2 319.202L1786.58 320.034Z" fill="#E2DBFF"/>
<path d="M1799.91 267.874L1781.03 316.104L1788.07 315.051L1799.91 267.874Z" fill="#E2DBFF"/>
<path fill-rule="evenodd" clip-rule="evenodd" d="M1655.14 401.571C1654.38 401.708 1653.76 400.974 1654.02 400.25L1666.56 365.16C1666.85 364.343 1667.97 364.262 1668.38 365.027L1685.97 397.929C1686.33 398.608 1685.82 399.424 1685.05 399.399L1682.05 399.299C1681.25 399.272 1680.74 400.163 1681.18 400.841L1691.08 416.125C1691.52 416.795 1691.03 417.678 1690.23 417.667L1686.21 417.615C1685.4 417.604 1684.92 418.495 1685.36 419.165L1698.18 438.549C1698.62 439.212 1698.15 440.096 1697.35 440.099L1679.73 440.181C1679.15 440.184 1678.7 440.676 1678.74 441.253L1680.45 464.367C1680.49 464.918 1680.08 465.397 1679.53 465.437L1670.34 466.104C1669.79 466.144 1669.31 465.73 1669.27 465.179L1667.55 442.066C1667.51 441.488 1666.99 441.067 1666.42 441.148L1648.97 443.613C1648.18 443.724 1647.59 442.918 1647.92 442.198L1657.75 421.17C1658.09 420.444 1657.47 419.632 1656.68 419.759L1652.7 420.393C1651.92 420.518 1651.3 419.715 1651.64 418.99L1659.18 402.439C1659.51 401.705 1658.88 400.897 1658.09 401.04L1655.14 401.571Z" fill="#C4C3FE"/>
<path fill-rule="evenodd" clip-rule="evenodd" d="M1653.43 401.878L1667.32 363.035L1664.59 399.867L1653.43 401.878ZM1657.95 404.874L1650.86 420.686L1666.23 418.236L1666.86 403.282L1657.95 404.874ZM1656.68 423.443L1647.14 443.871L1666.21 441.178L1667.34 421.859L1656.68 423.443Z" fill="#E9DBFF"/>
<path d="M1656.68 423.443L1647.14 443.871L1656.68 442.524L1662.01 422.651L1656.68 423.443Z" fill="#E9DBFF"/>
<path d="M1657.95 404.874L1650.86 420.686L1658.54 419.461L1662.41 404.078L1657.95 404.874Z" fill="#E9DBFF"/>
<path d="M1667.32 363.035L1653.43 401.878L1659.01 400.873L1667.32 363.035Z" fill="#E9DBFF"/>
<g filter="url(#filter6_i_128_13974)">
<path d="M2017.25 233.74L2173.81 247.398V673.249L1441.57 662.766V577.862L1540.86 544.764L1619.8 471.486L1734.76 387.953L1899.85 319.842L2017.25 233.74Z" fill="url(#paint1_linear_128_13974)"/>
</g>
<rect x="1339.91" y="520.087" width="130.129" height="165.622" fill="#CF5F95"/>
<path d="M1459.35 454.686H1441.24V471.468L1459.35 486.643V454.686Z" fill="#9DADE5"/>
<rect width="22.8761" height="8.47666" rx="1" transform="matrix(-1 0 0 1 1461.91 451.467)" fill="#C2CAFF"/>
<path d="M1329.44 520.087C1325 520.087 1322.76 514.732 1325.88 511.573L1401.42 435.115C1403.37 433.133 1406.57 433.133 1408.53 435.115L1484.06 511.573C1487.18 514.732 1484.95 520.087 1480.51 520.087H1329.44Z" fill="#C2CAFF"/>
<path d="M1333.48 520.087L1404.97 447.11L1476.46 520.087H1333.48Z" fill="#444B89" fill-opacity="0.43"/>
<path d="M1339.91 520.086L1404.97 454.223L1470.04 520.086V524.514H1339.91V520.086Z" fill="#CF5F95"/>
<path d="M1389.97 637.505C1389.97 629.221 1396.69 622.505 1404.97 622.505C1413.26 622.505 1419.97 629.221 1419.97 637.505V672.505H1389.97V637.505Z" fill="#0C1648"/>
<ellipse cx="1414.66" cy="651.499" rx="2.27093" ry="2.25" fill="white"/>
<circle cx="1404.97" cy="503.505" r="18" fill="#0C1648" stroke="#783582" stroke-width="4"/>
<path d="M1368.47 547.005C1368.47 541.206 1373.17 536.505 1378.97 536.505C1384.77 536.505 1389.47 541.206 1389.47 547.005V560.924H1368.47V547.005Z" fill="#0C1648"/>
<path d="M1364.97 561.924C1364.97 561.372 1365.42 560.924 1365.97 560.924H1391.97C1392.53 560.924 1392.97 561.372 1392.97 561.924V565.505C1392.97 566.058 1392.53 566.505 1391.97 566.505H1365.97C1365.42 566.505 1364.97 566.058 1364.97 565.505V561.924Z" fill="#783582"/>
<path d="M1420.47 547.005C1420.47 541.206 1425.17 536.505 1430.97 536.505C1436.77 536.505 1441.47 541.206 1441.47 547.005V560.924H1420.47V547.005Z" fill="#0C1648"/>
<path d="M1416.97 561.924C1416.97 561.372 1417.42 560.924 1417.97 560.924H1443.97C1444.53 560.924 1444.97 561.372 1444.97 561.924V565.505C1444.97 566.058 1444.53 566.505 1443.97 566.505H1417.97C1417.42 566.505 1416.97 566.058 1416.97 565.505V561.924Z" fill="#783582"/>
<path d="M1368.47 590.005C1368.47 584.206 1373.17 579.505 1378.97 579.505C1384.77 579.505 1389.47 584.206 1389.47 590.005V603.924H1368.47V590.005Z" fill="#0C1648"/>
<path d="M1364.97 604.924C1364.97 604.372 1365.42 603.924 1365.97 603.924H1391.97C1392.53 603.924 1392.97 604.372 1392.97 604.924V608.505C1392.97 609.058 1392.53 609.505 1391.97 609.505H1365.97C1365.42 609.505 1364.97 609.058 1364.97 608.505V604.924Z" fill="#783582"/>
<path d="M1420.47 590.005C1420.47 584.206 1425.17 579.505 1430.97 579.505C1436.77 579.505 1441.47 584.206 1441.47 590.005V603.924H1420.47V590.005Z" fill="#0C1648"/>
<path d="M1416.97 604.924C1416.97 604.372 1417.42 603.924 1417.97 603.924H1443.97C1444.53 603.924 1444.97 604.372 1444.97 604.924V608.505C1444.97 609.058 1444.53 609.505 1443.97 609.505H1417.97C1417.42 609.505 1416.97 609.058 1416.97 608.505V604.924Z" fill="#783582"/>
<rect x="694.467" y="592.462" width="273.076" height="144.77" fill="#D39D8C"/>
<path d="M678.686 615.46C673.304 615.46 671.722 608.122 676.626 605.904L843.165 530.603C844.475 530.011 845.976 530.011 847.285 530.603L1013.82 605.904C1018.73 608.122 1017.15 615.46 1011.76 615.46H678.686Z" fill="#C2CAFF"/>
<path d="M690.209 615.46L845.225 544.778L1000.24 615.46H690.209Z" fill="#444B89" fill-opacity="0.43"/>
<path d="M704.141 615.459L845.225 551.667L986.31 615.459V619.748H704.141V615.459Z" fill="#D39D8C"/>
<path d="M830.005 688.393C830.005 680.108 836.721 673.393 845.005 673.393C853.289 673.393 860.005 680.108 860.005 688.393V723.393H830.005V688.393Z" fill="#0C1648"/>
<ellipse cx="854.691" cy="702.386" rx="2.27093" ry="2.25" fill="white"/>
<circle cx="845.005" cy="597.393" r="18" fill="#0C1648" stroke="#783582" stroke-width="4"/>
<path d="M782.505 640.893C782.505 635.094 787.206 630.393 793.005 630.393C798.804 630.393 803.505 635.094 803.505 640.893V654.811H782.505V640.893Z" fill="#0C1648"/>
<path d="M779.005 655.811C779.005 655.259 779.453 654.811 780.005 654.811H806.005C806.557 654.811 807.005 655.259 807.005 655.811V659.393C807.005 659.945 806.557 660.393 806.005 660.393H780.005C779.453 660.393 779.005 659.945 779.005 659.393V655.811Z" fill="#783582"/>
<path d="M834.505 640.893C834.505 635.094 839.206 630.393 845.005 630.393C850.804 630.393 855.505 635.094 855.505 640.893V654.811H834.505V640.893Z" fill="#0C1648"/>
<path d="M831.005 655.811C831.005 655.259 831.453 654.811 832.005 654.811H858.005C858.557 654.811 859.005 655.259 859.005 655.811V659.393C859.005 659.945 858.557 660.393 858.005 660.393H832.005C831.453 660.393 831.005 659.945 831.005 659.393V655.811Z" fill="#783582"/>
<path d="M886.505 640.893C886.505 635.094 891.206 630.393 897.005 630.393C902.804 630.393 907.505 635.094 907.505 640.893V654.811H886.505V640.893Z" fill="#0C1648"/>
<path d="M883.005 655.811C883.005 655.259 883.453 654.811 884.005 654.811H910.005C910.557 654.811 911.005 655.259 911.005 655.811V659.393C911.005 659.945 910.557 660.393 910.005 660.393H884.005C883.453 660.393 883.005 659.945 883.005 659.393V655.811Z" fill="#783582"/>
<path d="M782.45 683.893C782.45 678.094 787.151 673.393 792.95 673.393C798.749 673.393 803.45 678.094 803.45 683.893V697.811H782.45V683.893Z" fill="#0C1648"/>
<path d="M778.95 698.811C778.95 698.259 779.398 697.811 779.95 697.811H805.95C806.502 697.811 806.95 698.259 806.95 698.811V702.393C806.95 702.945 806.502 703.393 805.95 703.393H779.95C779.398 703.393 778.95 702.945 778.95 702.393V698.811Z" fill="#783582"/>
<path d="M886.45 683.893C886.45 678.094 891.151 673.393 896.95 673.393C902.749 673.393 907.45 678.094 907.45 683.893V697.811H886.45V683.893Z" fill="#0C1648"/>
<path d="M882.95 698.811C882.95 698.259 883.398 697.811 883.95 697.811H909.95C910.502 697.811 910.95 698.259 910.95 698.811V702.393C910.95 702.945 910.502 703.393 909.95 703.393H883.95C883.398 703.393 882.95 702.945 882.95 702.393V698.811Z" fill="#783582"/>
<g filter="url(#filter7_f_128_13974)">
<path d="M830.005 798.393C830.005 806.677 836.721 813.393 845.005 813.393C853.289 813.393 860.005 806.677 860.005 798.393V763.393H830.005V798.393Z" fill="#0C1648"/>
<ellipse cx="2.27093" cy="2.25" rx="2.27093" ry="2.25" transform="matrix(1 0 0 -1 852.42 786.649)" fill="white"/>
<circle cx="20" cy="20" r="18" transform="matrix(1 0 0 -1 825.005 909.393)" fill="#0C1648" stroke="#E9E5FF" stroke-width="4"/>
<path d="M782.505 845.893C782.505 851.692 787.206 856.393 793.005 856.393C798.804 856.393 803.505 851.692 803.505 845.893V831.974H782.505V845.893Z" fill="#0C1648"/>
<path d="M834.505 845.893C834.505 851.692 839.206 856.393 845.005 856.393C850.804 856.393 855.505 851.692 855.505 845.893V831.974H834.505V845.893Z" fill="#0C1648"/>
<path d="M886.505 845.893C886.505 851.692 891.206 856.393 897.005 856.393C902.804 856.393 907.505 851.692 907.505 845.893V831.974H886.505V845.893Z" fill="#0C1648"/>
<path d="M782.45 802.893C782.45 808.692 787.151 813.393 792.95 813.393C798.749 813.393 803.45 808.692 803.45 802.893V788.974H782.45V802.893Z" fill="#0C1648"/>
<path d="M886.45 802.893C886.45 808.692 891.151 813.393 896.95 813.393C902.749 813.393 907.45 808.692 907.45 802.893V788.974H886.45V802.893Z" fill="#0C1648"/>
</g>
<rect x="902.985" y="598.701" width="140.888" height="149.281" fill="#CF5F95"/>
<path d="M893.294 605.86C888.531 605.86 886.466 599.83 890.229 596.909L970.364 534.727C972.168 533.327 974.691 533.327 976.495 534.727L1056.63 596.909C1060.39 599.83 1058.33 605.86 1053.56 605.86H893.294Z" fill="#C2CAFF"/>
<path d="M896.029 605.86L973.429 545.292L1050.83 605.86H896.029Z" fill="#444B89" fill-opacity="0.43"/>
<path d="M902.985 605.858L973.429 551.196L1043.87 605.858V609.534H902.985V605.858Z" fill="#CF5F95"/>
<path d="M958.584 687.983C958.584 679.698 965.3 672.983 973.584 672.983C981.868 672.983 988.584 679.698 988.584 687.983V722.983H958.584V687.983Z" fill="#0C1648"/>
<ellipse cx="983.27" cy="701.976" rx="2.27093" ry="2.25" fill="white"/>
<circle cx="973.584" cy="596.983" r="18" fill="#0C1648" stroke="#783582" stroke-width="4"/>
<path d="M937.084 640.483C937.084 634.684 941.785 629.983 947.584 629.983C953.383 629.983 958.084 634.684 958.084 640.483V654.401H937.084V640.483Z" fill="#0C1648"/>
<path d="M933.584 655.401C933.584 654.849 934.032 654.401 934.584 654.401H960.584C961.136 654.401 961.584 654.849 961.584 655.401V658.983C961.584 659.535 961.136 659.983 960.584 659.983H934.584C934.032 659.983 933.584 659.535 933.584 658.983V655.401Z" fill="#783582"/>
<path d="M989.084 640.483C989.084 634.684 993.785 629.983 999.584 629.983C1005.38 629.983 1010.08 634.684 1010.08 640.483V654.401H989.084V640.483Z" fill="#0C1648"/>
<path d="M985.584 655.401C985.584 654.849 986.032 654.401 986.584 654.401H1012.58C1013.14 654.401 1013.58 654.849 1013.58 655.401V658.983C1013.58 659.535 1013.14 659.983 1012.58 659.983H986.584C986.032 659.983 985.584 659.535 985.584 658.983V655.401Z" fill="#783582"/>
<g filter="url(#filter8_f_128_13974)">
<path d="M958.584 797.983C958.584 806.267 965.3 812.983 973.584 812.983C981.868 812.983 988.584 806.267 988.584 797.983V762.983H958.584V797.983Z" fill="#0C1648"/>
<ellipse cx="2.27093" cy="2.25" rx="2.27093" ry="2.25" transform="matrix(1 0 0 -1 980.999 786.239)" fill="white"/>
<circle cx="20" cy="20" r="18" transform="matrix(1 0 0 -1 953.584 908.983)" fill="#0C1648" stroke="#E9E5FF" stroke-width="4"/>
<path d="M937.084 845.483C937.084 851.282 941.785 855.983 947.584 855.983C953.383 855.983 958.084 851.282 958.084 845.483V831.564H937.084V845.483Z" fill="#0C1648"/>
<path d="M989.084 845.483C989.084 851.282 993.785 855.983 999.584 855.983C1005.38 855.983 1010.08 851.282 1010.08 845.483V831.564H989.084V845.483Z" fill="#0C1648"/>
</g>
<path d="M669.437 573.464H787.736V713.505H669.437V573.464Z" fill="#A2B5FC"/>
<g filter="url(#filter9_f_128_13974)">
<circle cx="698.502" cy="407.3" r="6.3334" fill="#CFD2FE"/>
<circle cx="698.502" cy="394.575" r="2.92233" fill="#CFD2FE"/>
<circle cx="697.426" cy="372.538" r="0.05" fill="#CFD2FE"/>
<circle cx="697.7" cy="369.718" r="0.05" fill="#CFD2FE"/>
<circle cx="0.05" cy="0.05" r="0.05" transform="matrix(1 0 0 -1 697.245 373.745)" fill="#CFD2FE"/>
</g>
<path d="M689.557 506.219H707.667V523.002L689.557 538.176V506.219Z" fill="#9DADE5"/>
<rect x="687" y="503" width="22.8761" height="8.47666" rx="1" fill="#C2CAFF"/>
<path d="M660.504 579.341C656.127 579.341 653.863 574.114 656.857 570.921L724.939 498.301C726.915 496.194 730.259 496.194 732.235 498.301L800.318 570.921C803.311 574.114 801.047 579.341 796.67 579.341H660.504Z" fill="#C2CAFF"/>
<path d="M663.532 579.341L728.587 509.365L793.642 579.341H663.532Z" fill="#444B89" fill-opacity="0.43"/>
<path d="M669.379 579.339L728.587 516.185L787.795 579.339V583.586H669.379V579.339Z" fill="#A2B5FC"/>
<path d="M713.113 656.113C713.113 647.829 719.828 641.113 728.113 641.113C736.397 641.113 743.113 647.829 743.113 656.113V691.113H713.113V656.113Z" fill="#0C1648"/>
<ellipse cx="737.799" cy="670.106" rx="2.27093" ry="2.25" fill="white"/>
<circle cx="728.113" cy="565.113" r="18" fill="#0C1648" stroke="#783582" stroke-width="4"/>
<path d="M691.613 608.613C691.613 602.814 696.314 598.113 702.113 598.113C707.912 598.113 712.613 602.814 712.613 608.613V622.532H691.613V608.613Z" fill="#0C1648"/>
<path d="M688.113 623.532C688.113 622.979 688.56 622.532 689.113 622.532H715.113C715.665 622.532 716.113 622.979 716.113 623.532V627.113C716.113 627.665 715.665 628.113 715.113 628.113H689.113C688.56 628.113 688.113 627.665 688.113 627.113V623.532Z" fill="#783582"/>
<path d="M743.613 608.613C743.613 602.814 748.314 598.113 754.113 598.113C759.912 598.113 764.613 602.814 764.613 608.613V622.532H743.613V608.613Z" fill="#0C1648"/>
<path d="M740.113 623.532C740.113 622.979 740.56 622.532 741.113 622.532H767.113C767.665 622.532 768.113 622.979 768.113 623.532V627.113C768.113 627.665 767.665 628.113 767.113 628.113H741.113C740.56 628.113 740.113 627.665 740.113 627.113V623.532Z" fill="#783582"/>
<g filter="url(#filter10_f_128_13974)">
<path d="M713.113 766.113C713.113 774.397 719.828 781.113 728.113 781.113C736.397 781.113 743.113 774.397 743.113 766.113V731.113H713.113V766.113Z" fill="#0C1648"/>
<ellipse cx="2.27093" cy="2.25" rx="2.27093" ry="2.25" transform="matrix(1 0 0 -1 735.528 754.37)" fill="white"/>
<circle cx="20" cy="20" r="18" transform="matrix(1 0 0 -1 708.113 877.113)" fill="#0C1648" stroke="#E9E5FF" stroke-width="4"/>
<path d="M691.613 813.613C691.613 819.412 696.314 824.113 702.113 824.113C707.912 824.113 712.613 819.412 712.613 813.613V799.694H691.613V813.613Z" fill="#0C1648"/>
<path d="M743.613 813.613C743.613 819.412 748.314 824.113 754.113 824.113C759.912 824.113 764.613 819.412 764.613 813.613V799.694H743.613V813.613Z" fill="#0C1648"/>
</g>
<defs>
<filter id="filter0_f_128_13974" x="1002" y="8" width="59" height="193.828" filterUnits="userSpaceOnUse" color-interpolation-filters="sRGB">
<feFlood flood-opacity="0" result="BackgroundImageFix"/>
<feBlend mode="normal" in="SourceGraphic" in2="BackgroundImageFix" result="shape"/>
<feGaussianBlur stdDeviation="7.5" result="effect1_foregroundBlur_128_13974"/>
</filter>
<filter id="filter1_f_128_13974" x="434" y="191" width="59.0044" height="187" filterUnits="userSpaceOnUse" color-interpolation-filters="sRGB">
<feFlood flood-opacity="0" result="BackgroundImageFix"/>
<feBlend mode="normal" in="SourceGraphic" in2="BackgroundImageFix" result="shape"/>
<feGaussianBlur stdDeviation="7.5" result="effect1_foregroundBlur_128_13974"/>
</filter>
<filter id="filter2_i_128_13974" x="17.2565" y="383.076" width="693.26" height="422.682" filterUnits="userSpaceOnUse" color-interpolation-filters="sRGB">
<feFlood flood-opacity="0" result="BackgroundImageFix"/>
<feBlend mode="normal" in="SourceGraphic" in2="BackgroundImageFix" result="shape"/>
<feColorMatrix in="SourceAlpha" type="matrix" values="0 0 0 0 0 0 0 0 0 0 0 0 0 0 0 0 0 0 127 0" result="hardAlpha"/>
<feOffset dx="5" dy="8"/>
<feGaussianBlur stdDeviation="2"/>
<feComposite in2="hardAlpha" operator="arithmetic" k2="-1" k3="1"/>
<feColorMatrix type="matrix" values="0 0 0 0 1 0 0 0 0 0.941667 0 0 0 0 0.941667 0 0 0 0.25 0"/>
<feBlend mode="normal" in2="shape" result="effect1_innerShadow_128_13974"/>
</filter>
<filter id="filter3_f_128_13974" x="1352" y="177.155" width="59" height="201.845" filterUnits="userSpaceOnUse" color-interpolation-filters="sRGB">
<feFlood flood-opacity="0" result="BackgroundImageFix"/>
<feBlend mode="normal" in="SourceGraphic" in2="BackgroundImageFix" result="shape"/>
<feGaussianBlur stdDeviation="7.5" result="effect1_foregroundBlur_128_13974"/>
</filter>
<filter id="filter4_f_128_13974" x="905.112" y="721.113" width="384" height="170" filterUnits="userSpaceOnUse" color-interpolation-filters="sRGB">
<feFlood flood-opacity="0" result="BackgroundImageFix"/>
<feBlend mode="normal" in="SourceGraphic" in2="BackgroundImageFix" result="shape"/>
<feGaussianBlur stdDeviation="6" result="effect1_foregroundBlur_128_13974"/>
</filter>
<filter id="filter5_f_128_13974" x="1069.03" y="695.505" width="384" height="256" filterUnits="userSpaceOnUse" color-interpolation-filters="sRGB">
<feFlood flood-opacity="0" result="BackgroundImageFix"/>
<feBlend mode="normal" in="SourceGraphic" in2="BackgroundImageFix" result="shape"/>
<feGaussianBlur stdDeviation="6" result="effect1_foregroundBlur_128_13974"/>
</filter>
<filter id="filter6_i_128_13974" x="1441.57" y="233.74" width="732.241" height="443.51" filterUnits="userSpaceOnUse" color-interpolation-filters="sRGB">
<feFlood flood-opacity="0" result="BackgroundImageFix"/>
<feBlend mode="normal" in="SourceGraphic" in2="BackgroundImageFix" result="shape"/>
<feColorMatrix in="SourceAlpha" type="matrix" values="0 0 0 0 0 0 0 0 0 0 0 0 0 0 0 0 0 0 127 0" result="hardAlpha"/>
<feOffset dy="9"/>
<feGaussianBlur stdDeviation="2"/>
<feComposite in2="hardAlpha" operator="arithmetic" k2="-1" k3="1"/>
<feColorMatrix type="matrix" values="0 0 0 0 0.825 0 0 0 0 0.8635 0 0 0 0 1 0 0 0 0.67 0"/>
<feBlend mode="normal" in2="shape" result="effect1_innerShadow_128_13974"/>
</filter>
<filter id="filter7_f_128_13974" x="653.005" y="751.393" width="384" height="170" filterUnits="userSpaceOnUse" color-interpolation-filters="sRGB">
<feFlood flood-opacity="0" result="BackgroundImageFix"/>
<feBlend mode="normal" in="SourceGraphic" in2="BackgroundImageFix" result="shape"/>
<feGaussianBlur stdDeviation="6" result="effect1_foregroundBlur_128_13974"/>
</filter>
<filter id="filter8_f_128_13974" x="781.584" y="750.983" width="384" height="170" filterUnits="userSpaceOnUse" color-interpolation-filters="sRGB">
<feFlood flood-opacity="0" result="BackgroundImageFix"/>
<feBlend mode="normal" in="SourceGraphic" in2="BackgroundImageFix" result="shape"/>
<feGaussianBlur stdDeviation="6" result="effect1_foregroundBlur_128_13974"/>
</filter>
<filter id="filter9_f_128_13974" x="669" y="354.668" width="59" height="198.332" filterUnits="userSpaceOnUse" color-interpolation-filters="sRGB">
<feFlood flood-opacity="0" result="BackgroundImageFix"/>
<feBlend mode="normal" in="SourceGraphic" in2="BackgroundImageFix" result="shape"/>
<feGaussianBlur stdDeviation="7.5" result="effect1_foregroundBlur_128_13974"/>
</filter>
<filter id="filter10_f_128_13974" x="536.113" y="719.113" width="384" height="170" filterUnits="userSpaceOnUse" color-interpolation-filters="sRGB">
<feFlood flood-opacity="0" result="BackgroundImageFix"/>
<feBlend mode="normal" in="SourceGraphic" in2="BackgroundImageFix" result="shape"/>
<feGaussianBlur stdDeviation="6" result="effect1_foregroundBlur_128_13974"/>
</filter>
<linearGradient id="paint0_linear_128_13974" x1="276" y1="419.5" x2="242.504" y2="569.631" gradientUnits="userSpaceOnUse">
<stop stop-color="#D1CAFF"/>
<stop offset="1" stop-color="#849FEE"/>
</linearGradient>
<linearGradient id="paint1_linear_128_13974" x1="1713.5" y1="383" x2="1368.38" y2="518.501" gradientUnits="userSpaceOnUse">
<stop stop-color="#D1CAFF"/>
<stop offset="1" stop-color="#849FEE"/>
</linearGradient>
</defs>
</svg>
